SplineFontDB: 3.0
FontName: KingthingsClarity
FullName: Kingthings Clarity
FamilyName: Kingthings Clarity
Weight: Book
Copyright: Kingthings Clarity, Copyright Kevin King 2008
Version: 1.1
ItalicAngle: 0
UnderlinePosition: -123
UnderlineWidth: 20
Ascent: 800
Descent: 200
InvalidEm: 0
sfntRevision: 0x00010000
LayerCount: 2
Layer: 0 1 "Back" 1
Layer: 1 1 "Fore" 0
XUID: [1021 368 1497645591 4625281]
FSType: 0
OS2Version: 0
OS2_WeightWidthSlopeOnly: 0
OS2_UseTypoMetrics: 1
CreationTime: 1185953766
ModificationTime: 1506890641
PfmFamily: 81
TTFWeight: 400
TTFWidth: 5
LineGap: 0
VLineGap: 0
Panose: 0 0 0 0 0 0 0 0 0 0
OS2TypoAscent: 1065
OS2TypoAOffset: 0
OS2TypoDescent: -279
OS2TypoDOffset: 0
OS2TypoLinegap: 0
OS2WinAscent: 1065
OS2WinAOffset: 0
OS2WinDescent: 279
OS2WinDOffset: 0
HheadAscent: 1065
HheadAOffset: 0
HheadDescent: -279
HheadDOffset: 0
OS2SubXSize: 0
OS2SubYSize: 0
OS2SubXOff: 0
OS2SubYOff: 0
OS2SupXSize: 0
OS2SupYSize: 0
OS2SupXOff: 0
OS2SupYOff: 0
OS2StrikeYSize: 1
OS2StrikeYPos: 0
OS2Vendor: 'Alts'
OS2UnicodeRanges: 00000000.00000000.00000000.00000000
Lookup: 258 0 0 "'kern' Horizontal Kerning in Latin lookup 0" { "'kern' Horizontal Kerning in Latin lookup 0 subtable"  } ['kern' ('latn' <'dflt' > ) ]
DEI: 91125
TtTable: prep
NPUSHB
 23
 14
 14
 13
 13
 12
 12
 11
 11
 10
 10
 9
 9
 8
 8
 3
 3
 2
 2
 1
 1
 0
 0
 1
SCANTYPE
PUSHW_1
 511
SCANCTRL
RCVT
ROUND[Grey]
WCVTP
RCVT
ROUND[Grey]
WCVTP
RCVT
ROUND[Grey]
WCVTP
RCVT
ROUND[Grey]
WCVTP
RCVT
ROUND[Grey]
WCVTP
RCVT
ROUND[Grey]
WCVTP
RCVT
ROUND[Grey]
WCVTP
RCVT
ROUND[Grey]
WCVTP
RCVT
ROUND[Grey]
WCVTP
RCVT
ROUND[Grey]
WCVTP
RCVT
ROUND[Grey]
WCVTP
PUSHB_4
 5
 4
 70
 0
CALL
PUSHB_4
 7
 6
 70
 0
CALL
PUSHB_2
 4
 4
RCVT
ROUND[Grey]
WCVTP
PUSHB_2
 6
 6
RCVT
ROUND[Grey]
WCVTP
EndTTInstrs
TtTable: fpgm
NPUSHB
 1
 0
FDEF
SROUND
RCVT
DUP
PUSHB_1
 3
CINDEX
RCVT
SWAP
SUB
ROUND[Grey]
RTG
SWAP
ROUND[Grey]
ADD
WCVTP
ENDF
EndTTInstrs
ShortTable: cvt  18
  -194
  -22
  535
  748
  285
  259
  177
  106
  104
  153
  187
  60

StartChar: .notdef
Encoding: 65536 -1 0
Width: 500
Flags: W
LayerCount: 2
Fore
SplineSet
63 0 m 1,0,-1
 63 1065 l 1,1,-1
 438 1065 l 1,2,-1
 438 0 l 1,3,-1
 63 0 l 1,0,-1
125 63 m 1,4,-1
 375 63 l 1,5,-1
 375 1003 l 1,6,-1
 125 1003 l 1,7,-1
 125 63 l 1,4,-1
EndSplineSet
EndChar

StartChar: exclam
Encoding: 33 33 4
Width: 256
Flags: W
LayerCount: 2
Fore
SplineSet
76 308 m 1,1,-1
 76 689 l 1,2,3
 70 751 70 751 130.5 750.5 c 128,-1,4
 191 750 191 750 182 689 c 1,5,-1
 182 307 l 1,6,7
 186 249 186 249 130.5 249.5 c 128,-1,0
 75 250 75 250 76 308 c 1,1,-1
65.5 112.5 m 128,-1,9
 47 71 47 71 66.5 34.5 c 128,-1,10
 86 -2 86 -2 131.5 -2.5 c 128,-1,11
 177 -3 177 -3 199 33.5 c 128,-1,12
 221 70 221 70 203 112 c 128,-1,13
 185 154 185 154 134.5 154 c 128,-1,8
 84 154 84 154 65.5 112.5 c 128,-1,9
EndSplineSet
EndChar

StartChar: quotedbl
Encoding: 34 34 5
Width: 359
Flags: W
LayerCount: 2
Fore
SplineSet
95 676 m 1,0,1
 63 676 63 676 41 698 c 128,-1,2
 19 720 19 720 19 752 c 256,3,4
 19 784 19 784 41 806.5 c 128,-1,5
 63 829 63 829 95 829 c 0,6,7
 126 829 126 829 149 806.5 c 128,-1,8
 172 784 172 784 177.5 736 c 128,-1,9
 183 688 183 688 154.5 635 c 128,-1,10
 126 582 126 582 75 551 c 1,11,12
 61 545 61 545 50.5 560 c 128,-1,13
 40 575 40 575 56 587 c 1,14,15
 109 635 109 635 95 676 c 1,0,1
261 676 m 1,16,17
 229 676 229 676 207 698 c 128,-1,18
 185 720 185 720 185 752 c 256,19,20
 185 784 185 784 207 806.5 c 128,-1,21
 229 829 229 829 261 829 c 0,22,23
 292 829 292 829 315 806.5 c 128,-1,24
 338 784 338 784 343.5 736 c 128,-1,25
 349 688 349 688 320.5 635 c 128,-1,26
 292 582 292 582 241 551 c 1,27,28
 227 545 227 545 216.5 560 c 128,-1,29
 206 575 206 575 222 587 c 1,30,31
 275 635 275 635 261 676 c 1,16,17
EndSplineSet
EndChar

StartChar: numbersign
Encoding: 35 35 6
Width: 567
Flags: W
LayerCount: 2
Fore
SplineSet
227 410 m 1,0,-1
 315 410 l 1,1,-1
 353 519 l 1,2,-1
 269 519 l 1,3,-1
 227 410 l 1,0,-1
148 410 m 1,4,-1
 189 519 l 1,5,-1
 109 519 l 1,6,7
 63 525 63 525 68 565 c 1,8,9
 75 605 75 605 126 600 c 1,10,-1
 206 600 l 1,11,-1
 233 698 l 2,12,13
 242 730 242 730 266.5 730 c 128,-1,14
 291 730 291 730 301 722 c 128,-1,15
 311 714 311 714 312 700.5 c 128,-1,16
 313 687 313 687 286 600 c 1,17,-1
 370 600 l 1,18,-1
 402 700 l 1,19,20
 410 730 410 730 439.5 731.5 c 128,-1,21
 469 733 469 733 478.5 724.5 c 128,-1,22
 488 716 488 716 480 684 c 1,23,-1
 453 600 l 1,24,-1
 530 600 l 2,25,26
 564 600 564 600 564 575 c 0,27,28
 564 518 564 518 526 520 c 1,29,-1
 435 519 l 1,30,-1
 400 410 l 1,31,-1
 481 410 l 1,32,33
 511 408 511 408 517.5 390.5 c 128,-1,34
 524 373 524 373 513.5 351 c 128,-1,35
 503 329 503 329 466 329 c 2,36,-1
 383 329 l 1,37,-1
 353 220 l 2,38,39
 344 187 344 187 305 187 c 0,40,41
 269 187 269 187 267 218 c 1,42,43
 296 324 296 324 296 329 c 1,44,-1
 208 329 l 1,45,46
 199 289 199 289 175 217 c 1,47,48
 165 194 165 194 144.5 189.5 c 128,-1,49
 124 185 124 185 107 192 c 128,-1,50
 90 199 90 199 95 229 c 1,51,-1
 128 329 l 1,52,-1
 74 329 l 1,53,54
 43 331 43 331 34.5 349 c 128,-1,55
 26 367 26 367 37 390 c 128,-1,56
 48 413 48 413 80 410 c 1,57,-1
 148 410 l 1,4,-1
EndSplineSet
EndChar

StartChar: dollar
Encoding: 36 36 7
Width: 584
Flags: W
LayerCount: 2
Fore
SplineSet
334 849 m 1,0,1
 335 884 335 884 311 895.5 c 128,-1,2
 287 907 287 907 264.5 892.5 c 128,-1,3
 242 878 242 878 246 849 c 1,4,-1
 246 751 l 1,5,6
 139 739 139 739 90 669 c 128,-1,7
 41 599 41 599 50.5 516 c 128,-1,8
 60 433 60 433 121 392.5 c 128,-1,9
 182 352 182 352 246 340 c 1,10,-1
 246 103 l 1,11,12
 219 109 219 109 181.5 130.5 c 128,-1,13
 144 152 144 152 120.5 185.5 c 128,-1,14
 97 219 97 219 57.5 192 c 128,-1,15
 18 165 18 165 38.5 124.5 c 128,-1,16
 59 84 59 84 126 39 c 1,17,18
 177 12 177 12 246 1 c 1,19,-1
 246 -119 l 1,20,21
 248 -170 248 -170 290 -171 c 1,22,23
 333 -170 333 -170 334 -120 c 1,24,-1
 334 1 l 1,25,26
 436 7 436 7 497.5 63 c 128,-1,27
 559 119 559 119 553.5 221.5 c 128,-1,28
 548 324 548 324 480 367 c 128,-1,29
 412 410 412 410 334 421 c 1,30,-1
 334 659 l 1,31,32
 372 648 372 648 403 622 c 1,33,34
 440 582 440 582 478 609 c 128,-1,35
 516 636 516 636 476 690 c 1,36,37
 423 744 423 744 334 752 c 1,38,-1
 334 849 l 1,0,1
246 446 m 1,39,40
 178 450 178 450 155 503 c 128,-1,41
 132 556 132 556 160 603.5 c 128,-1,42
 188 651 188 651 246 652 c 1,43,-1
 246 446 l 1,39,40
434 269 m 128,-1,45
 470 226 470 226 449 162 c 128,-1,46
 428 98 428 98 336 98 c 1,47,-1
 336 320 l 1,48,44
 398 312 398 312 434 269 c 128,-1,45
EndSplineSet
EndChar

StartChar: percent
Encoding: 37 37 8
Width: 696
Flags: W
LayerCount: 2
Fore
SplineSet
25.5 599.5 m 128,-1,1
 9 452 9 452 59 398 c 128,-1,2
 109 344 109 344 180.5 343.5 c 128,-1,3
 252 343 252 343 304 397 c 128,-1,4
 356 451 356 451 340.5 600.5 c 128,-1,5
 325 750 325 750 183.5 748.5 c 128,-1,0
 42 747 42 747 25.5 599.5 c 128,-1,1
263.5 545.5 m 128,-1,7
 267 431 267 431 185.5 430 c 128,-1,8
 104 429 104 429 104 544.5 c 128,-1,9
 104 660 104 660 182 660 c 128,-1,6
 260 660 260 660 263.5 545.5 c 128,-1,7
243 163 m 1,10,11
 211 128 211 128 182.5 153.5 c 128,-1,12
 154 179 154 179 186 211 c 1,13,-1
 473 598 l 2,14,15
 499 634 499 634 530 611.5 c 128,-1,16
 561 589 561 589 532 553 c 1,17,-1
 243 163 l 1,10,11
360.5 244.5 m 128,-1,19
 344 97 344 97 394 43 c 128,-1,20
 444 -11 444 -11 515.5 -11.5 c 128,-1,21
 587 -12 587 -12 639 42 c 128,-1,22
 691 96 691 96 675.5 245.5 c 128,-1,23
 660 395 660 395 518.5 393.5 c 128,-1,18
 377 392 377 392 360.5 244.5 c 128,-1,19
598.5 190.5 m 128,-1,25
 602 76 602 76 520.5 75 c 128,-1,26
 439 74 439 74 439 189.5 c 128,-1,27
 439 305 439 305 517 305 c 128,-1,24
 595 305 595 305 598.5 190.5 c 128,-1,25
EndSplineSet
EndChar

StartChar: ampersand
Encoding: 38 38 9
Width: 775
Flags: W
LayerCount: 2
Fore
SplineSet
290 451 m 1,0,1
 369 492 369 492 382.5 543 c 128,-1,2
 396 594 396 594 371.5 624.5 c 128,-1,3
 347 655 347 655 298.5 657 c 128,-1,4
 250 659 250 659 223.5 629.5 c 128,-1,5
 197 600 197 600 203 553.5 c 128,-1,6
 209 507 209 507 290 451 c 1,0,1
282 331 m 1,7,8
 206 311 206 311 162.5 263.5 c 128,-1,9
 119 216 119 216 136 169.5 c 128,-1,10
 153 123 153 123 201 101.5 c 128,-1,11
 249 80 249 80 326 93 c 128,-1,12
 403 106 403 106 449 184 c 1,13,-1
 282 331 l 1,7,8
118 637 m 128,-1,15
 136 683 136 683 170 712 c 128,-1,16
 204 741 204 741 270 750.5 c 128,-1,17
 336 760 336 760 387 737.5 c 128,-1,18
 438 715 438 715 468 663 c 128,-1,19
 498 611 498 611 477.5 530 c 128,-1,20
 457 449 457 449 370 390 c 1,21,22
 431 333 431 333 497 280 c 1,23,24
 519 328 519 328 509 380 c 0,25,26
 500 428 500 428 531.5 441.5 c 128,-1,27
 563 455 563 455 586.5 441 c 128,-1,28
 610 427 610 427 612 382 c 1,29,30
 620 290 620 290 585 210 c 1,31,-1
 739 78 l 2,32,33
 762 57 762 57 756.5 31 c 128,-1,34
 751 5 751 5 724 -5 c 128,-1,35
 697 -15 697 -15 669 2 c 1,36,-1
 537 114 l 1,37,38
 449 -3 449 -3 323 -13 c 128,-1,39
 197 -23 197 -23 124.5 18 c 128,-1,40
 52 59 52 59 32.5 146.5 c 128,-1,41
 13 234 13 234 62.5 304 c 128,-1,42
 112 374 112 374 198 402 c 1,43,44
 127 462 127 462 113.5 526.5 c 128,-1,14
 100 591 100 591 118 637 c 128,-1,15
EndSplineSet
EndChar

StartChar: quotesingle
Encoding: 39 39 10
Width: 196
Flags: W
LayerCount: 2
Fore
SplineSet
94 676 m 1,0,1
 62 676 62 676 40 698 c 128,-1,2
 18 720 18 720 18 752 c 256,3,4
 18 784 18 784 40 806.5 c 128,-1,5
 62 829 62 829 94 829 c 0,6,7
 125 829 125 829 148 806.5 c 128,-1,8
 171 784 171 784 176.5 736 c 128,-1,9
 182 688 182 688 153.5 635 c 128,-1,10
 125 582 125 582 74 551 c 1,11,12
 60 545 60 545 49.5 560 c 128,-1,13
 39 575 39 575 55 587 c 1,14,15
 108 635 108 635 94 676 c 1,0,1
EndSplineSet
EndChar

StartChar: parenleft
Encoding: 40 40 11
Width: 281
Flags: W
LayerCount: 2
Fore
SplineSet
8 428 m 128,-1,1
 -1 118 -1 118 181 -172 c 1,2,3
 205 -216 205 -216 240.5 -221.5 c 128,-1,4
 276 -227 276 -227 287.5 -197 c 128,-1,5
 299 -167 299 -167 258 -120 c 1,6,7
 97 114 97 114 99.5 408 c 128,-1,8
 102 702 102 702 249 889 c 1,9,10
 285 924 285 924 284.5 960 c 128,-1,11
 284 996 284 996 249.5 1000 c 128,-1,12
 215 1004 215 1004 177 948 c 1,13,0
 17 738 17 738 8 428 c 128,-1,1
EndSplineSet
EndChar

StartChar: parenright
Encoding: 41 41 12
Width: 277
Flags: W
LayerCount: 2
Fore
SplineSet
266 428 m 128,-1,1
 275 118 275 118 93 -172 c 1,2,3
 69 -216 69 -216 33.5 -221.5 c 128,-1,4
 -2 -227 -2 -227 -13.5 -197 c 128,-1,5
 -25 -167 -25 -167 16 -120 c 1,6,7
 177 114 177 114 174.5 408 c 128,-1,8
 172 702 172 702 25 889 c 1,9,10
 -11 924 -11 924 -10.5 960 c 128,-1,11
 -10 996 -10 996 24.5 1000 c 128,-1,12
 59 1004 59 1004 97 948 c 1,13,0
 257 738 257 738 266 428 c 128,-1,1
EndSplineSet
EndChar

StartChar: asterisk
Encoding: 42 42 13
Width: 351
Flags: W
LayerCount: 2
Fore
SplineSet
283 780 m 1,0,1
 305 803 305 803 293.5 823 c 128,-1,2
 282 843 282 843 266.5 846 c 128,-1,3
 251 849 251 849 238 837 c 1,4,-1
 197 782 l 1,5,-1
 212 846 l 1,6,7
 212 866 212 866 196.5 874.5 c 128,-1,8
 181 883 181 883 158.5 876.5 c 128,-1,9
 136 870 136 870 143 838 c 1,10,-1
 147 781 l 1,11,-1
 110 837 l 1,12,13
 96 851 96 851 79 846 c 128,-1,14
 62 841 62 841 49.5 818.5 c 128,-1,15
 37 796 37 796 67 777 c 1,16,-1
 115 749 l 1,17,-1
 46 757 l 1,18,19
 25 756 25 756 16.5 740.5 c 128,-1,20
 8 725 8 725 16.5 701 c 128,-1,21
 25 677 25 677 57 683 c 2,22,-1
 111 694 l 1,23,-1
 56 656 l 1,24,25
 42 641 42 641 46.5 624 c 128,-1,26
 51 607 51 607 72.5 596.5 c 128,-1,27
 94 586 94 586 115 612 c 1,28,-1
 150 662 l 1,29,-1
 140 597 l 1,30,31
 138 563 138 563 161.5 558 c 128,-1,32
 185 553 185 553 200.5 563 c 128,-1,33
 216 573 216 573 212 589 c 2,34,-1
 197 662 l 1,35,-1
 234 610 l 1,36,37
 255 586 255 586 276.5 598 c 128,-1,38
 298 610 298 610 302.5 626.5 c 128,-1,39
 307 643 307 643 292 655 c 1,40,-1
 229 697 l 1,41,-1
 294 683 l 1,42,43
 327 684 327 684 332.5 706.5 c 128,-1,44
 338 729 338 729 331 743 c 128,-1,45
 324 757 324 757 303 756 c 1,46,-1
 230 747 l 1,47,-1
 283 780 l 1,0,1
EndSplineSet
EndChar

StartChar: plus
Encoding: 43 43 14
Width: 567
Flags: W
LayerCount: 2
Fore
SplineSet
230 168 m 1,0,1
 226 115 226 115 283 114.5 c 128,-1,2
 340 114 340 114 338 165 c 1,3,-1
 338 312 l 1,4,-1
 481 312 l 1,5,6
 534 308 534 308 534 365.5 c 128,-1,7
 534 423 534 423 479 420 c 1,8,-1
 338 420 l 1,9,-1
 338 561 l 1,10,11
 342 614 342 614 285 614 c 128,-1,12
 228 614 228 614 230 559 c 1,13,-1
 230 420 l 1,14,-1
 88 420 l 1,15,16
 35 425 35 425 34.5 367.5 c 128,-1,17
 34 310 34 310 85 312 c 1,18,-1
 230 312 l 1,19,-1
 230 168 l 1,0,1
EndSplineSet
EndChar

StartChar: comma
Encoding: 44 44 15
Width: 243
Flags: W
LayerCount: 2
Fore
SplineSet
127 -2 m 1,0,1
 95 -2 95 -2 73 20 c 128,-1,2
 51 42 51 42 51 74 c 256,3,4
 51 106 51 106 73 128.5 c 128,-1,5
 95 151 95 151 127 151 c 0,6,7
 158 151 158 151 181 128.5 c 128,-1,8
 204 106 204 106 209.5 58 c 128,-1,9
 215 10 215 10 186.5 -43 c 128,-1,10
 158 -96 158 -96 107 -127 c 1,11,12
 93 -133 93 -133 82.5 -118 c 128,-1,13
 72 -103 72 -103 88 -91 c 1,14,15
 141 -43 141 -43 127 -2 c 1,0,1
EndSplineSet
EndChar

StartChar: hyphen
Encoding: 8208 8208 16
Width: 579
Flags: W
LayerCount: 2
Fore
SplineSet
484 317 m 1,0,1
 537 312 537 312 537 369.5 c 128,-1,2
 537 427 537 427 486 425 c 1,3,-1
 90 425 l 1,4,5
 38 429 38 429 38 371.5 c 128,-1,6
 38 314 38 314 93 317 c 1,7,-1
 484 317 l 1,0,1
EndSplineSet
EndChar

StartChar: period
Encoding: 46 46 17
Width: 250
Flags: W
LayerCount: 2
Fore
SplineSet
127 -1 m 0,0,1
 95 -1 95 -1 73 21.5 c 128,-1,2
 51 44 51 44 51 77 c 0,3,4
 51 107 51 107 73 130 c 128,-1,5
 95 153 95 153 127 153 c 0,6,7
 158 153 158 153 181 130 c 128,-1,8
 204 107 204 107 204 77 c 0,9,10
 204 44 204 44 181 21.5 c 128,-1,11
 158 -1 158 -1 127 -1 c 0,0,1
EndSplineSet
EndChar

StartChar: slash
Encoding: 47 47 18
Width: 454
Flags: W
LayerCount: 2
Fore
SplineSet
93 -184 m 2,0,1
 81 -220 81 -220 54 -225.5 c 128,-1,2
 27 -231 27 -231 9 -210.5 c 128,-1,3
 -9 -190 -9 -190 3 -157 c 1,4,-1
 340 953 l 1,5,6
 350 998 350 998 379 1008.5 c 128,-1,7
 408 1019 408 1019 429.5 996 c 128,-1,8
 451 973 451 973 432 927 c 1,9,-1
 93 -184 l 2,0,1
EndSplineSet
EndChar

StartChar: zero
Encoding: 48 48 19
Width: 626
Flags: W
LayerCount: 2
Fore
SplineSet
37 478.5 m 128,-1,1
 5 205 5 205 92 99.5 c 128,-1,2
 179 -6 179 -6 316.5 -6.5 c 128,-1,3
 454 -7 454 -7 539 97.5 c 128,-1,4
 624 202 624 202 597.5 476.5 c 128,-1,5
 571 751 571 751 320 751.5 c 128,-1,0
 69 752 69 752 37 478.5 c 128,-1,1
495.5 380.5 m 128,-1,7
 502 111 502 111 320 110.5 c 128,-1,8
 138 110 138 110 139.5 379.5 c 128,-1,9
 141 649 141 649 315 649.5 c 128,-1,6
 489 650 489 650 495.5 380.5 c 128,-1,7
EndSplineSet
EndChar

StartChar: one
Encoding: 49 49 20
Width: 318
Flags: W
LayerCount: 2
Fore
SplineSet
210 -4 m 128,-1,1
 157 -4 157 -4 156 42 c 1,2,-1
 156 599 l 1,3,-1
 110 562 l 1,4,5
 65 537 65 537 41 571.5 c 128,-1,6
 17 606 17 606 62 644 c 1,7,-1
 178 735 l 1,8,9
 219 758 219 758 244 739.5 c 128,-1,10
 269 721 269 721 265 671 c 1,11,-1
 265 43 l 1,12,0
 263 -4 263 -4 210 -4 c 128,-1,1
EndSplineSet
EndChar

StartChar: two
Encoding: 50 50 21
Width: 567
Flags: W
LayerCount: 2
Fore
SplineSet
64 630 m 1,1,2
 42 571 42 571 61.5 541.5 c 128,-1,3
 81 512 81 512 113 519 c 128,-1,4
 145 526 145 526 159 577.5 c 128,-1,5
 173 629 173 629 233.5 652 c 128,-1,6
 294 675 294 675 355.5 637.5 c 128,-1,7
 417 600 417 600 399.5 527.5 c 128,-1,8
 382 455 382 455 334 413 c 1,9,-1
 69 130 l 1,10,11
 37 83 37 83 55.5 40.5 c 128,-1,12
 74 -2 74 -2 134 0 c 1,13,-1
 493 0 l 1,14,15
 543 -4 543 -4 543.5 55.5 c 128,-1,16
 544 115 544 115 496 111 c 1,17,-1
 182 111 l 1,18,-1
 395 335 l 1,19,20
 472 408 472 408 496 482 c 128,-1,21
 520 556 520 556 502 617 c 128,-1,22
 484 678 484 678 440 712 c 128,-1,23
 396 746 396 746 334 756.5 c 128,-1,24
 272 767 272 767 195 742.5 c 128,-1,0
 118 718 118 718 64 630 c 1,1,2
EndSplineSet
EndChar

StartChar: three
Encoding: 51 51 22
Width: 562
Flags: W
LayerCount: 2
Fore
SplineSet
121 751 m 1,0,1
 66 753 66 753 67.5 695 c 128,-1,2
 69 637 69 637 123 642 c 1,3,-1
 346 642 l 1,4,-1
 353 633 l 1,5,-1
 216 478 l 1,6,7
 169 447 169 447 202.5 407 c 128,-1,8
 236 367 236 367 276 403 c 1,9,10
 305 424 305 424 365 397 c 128,-1,11
 425 370 425 370 438 309.5 c 128,-1,12
 451 249 451 249 424 183 c 128,-1,13
 397 117 397 117 299 104 c 128,-1,14
 201 91 201 91 124 191 c 1,15,16
 93 243 93 243 44.5 212 c 128,-1,17
 -4 181 -4 181 33 135 c 1,18,19
 80 52 80 52 168 15.5 c 128,-1,20
 256 -21 256 -21 350.5 4 c 128,-1,21
 445 29 445 29 506.5 114.5 c 128,-1,22
 568 200 568 200 543.5 329.5 c 128,-1,23
 519 459 519 459 360 496 c 1,24,-1
 477 637 l 1,25,26
 518 682 518 682 496.5 721 c 128,-1,27
 475 760 475 760 418 751 c 1,28,-1
 121 751 l 1,0,1
EndSplineSet
EndChar

StartChar: four
Encoding: 52 52 23
Width: 659
Flags: W
LayerCount: 2
Fore
SplineSet
482 205 m 1,0,-1
 482 34 l 2,1,2
 482 -6 482 -6 427 -6 c 128,-1,3
 372 -6 372 -6 374 35 c 1,4,-1
 374 207 l 1,5,-1
 86 207 l 1,6,7
 54 204 54 204 37 233.5 c 128,-1,8
 20 263 20 263 42 297 c 1,9,-1
 209 703 l 1,10,11
 232 764 232 764 282.5 746.5 c 128,-1,12
 333 729 333 729 310 665 c 1,13,-1
 161 314 l 1,14,-1
 375 314 l 1,15,-1
 375 698 l 1,16,17
 379 750 379 750 428.5 749 c 128,-1,18
 478 748 478 748 482 697 c 1,19,-1
 482 313 l 1,20,-1
 594 313 l 1,21,22
 644 319 644 319 644 259.5 c 128,-1,23
 644 200 644 200 593 205 c 1,24,-1
 482 205 l 1,0,-1
EndSplineSet
EndChar

StartChar: five
Encoding: 53 53 24
Width: 590
Flags: W
LayerCount: 2
Fore
SplineSet
160 750 m 1,0,1
 109 744 109 744 87 686 c 1,2,-1
 53 385 l 1,3,4
 45 347 45 347 88.5 333 c 128,-1,5
 132 319 132 319 147 344 c 1,6,7
 206 413 206 413 306.5 406.5 c 128,-1,8
 407 400 407 400 438.5 334.5 c 128,-1,9
 470 269 470 269 443.5 189.5 c 128,-1,10
 417 110 417 110 314 100 c 128,-1,11
 211 90 211 90 123 179 c 1,12,13
 93 233 93 233 49.5 200 c 128,-1,14
 6 167 6 167 45 113 c 0,15,16
 105 28 105 28 194.5 7 c 128,-1,17
 284 -14 284 -14 353 -0.5 c 128,-1,18
 422 13 422 13 473.5 55.5 c 128,-1,19
 525 98 525 98 546.5 161.5 c 128,-1,20
 568 225 568 225 562 292 c 128,-1,21
 556 359 556 359 512.5 423 c 128,-1,22
 469 487 469 487 366 505 c 128,-1,23
 263 523 263 523 158 476 c 1,24,-1
 179 637 l 1,25,-1
 424 637 l 1,26,27
 492 638 492 638 494.5 694 c 128,-1,28
 497 750 497 750 423 750 c 2,29,-1
 160 750 l 1,0,1
EndSplineSet
EndChar

StartChar: six
Encoding: 54 54 25
Width: 600
Flags: W
LayerCount: 2
Fore
SplineSet
392 755 m 1,0,1
 253 753 253 753 161 662 c 128,-1,2
 69 571 69 571 42.5 440.5 c 128,-1,3
 16 310 16 310 36.5 213 c 128,-1,4
 57 116 57 116 118 59.5 c 128,-1,5
 179 3 179 3 277 -4.5 c 128,-1,6
 375 -12 375 -12 451 29 c 128,-1,7
 527 70 527 70 558.5 153 c 128,-1,8
 590 236 590 236 570 313.5 c 128,-1,9
 550 391 550 391 493.5 440 c 128,-1,10
 437 489 437 489 342 494 c 128,-1,11
 247 499 247 499 150 431 c 1,12,13
 172 542 172 542 244.5 596.5 c 128,-1,14
 317 651 317 651 400 654 c 1,15,16
 454 654 454 654 455 707 c 128,-1,17
 456 760 456 760 392 755 c 1,0,1
450 311.5 m 128,-1,19
 484 238 484 238 448 172 c 128,-1,20
 412 106 412 106 307.5 107.5 c 128,-1,21
 203 109 203 109 168 179 c 128,-1,22
 133 249 133 249 169.5 317.5 c 128,-1,23
 206 386 206 386 311 385.5 c 128,-1,18
 416 385 416 385 450 311.5 c 128,-1,19
EndSplineSet
EndChar

StartChar: seven
Encoding: 55 55 26
Width: 503
Flags: W
LayerCount: 2
Fore
SplineSet
21 693.5 m 128,-1,1
 21 635 21 635 97 639 c 1,2,-1
 345 639 l 1,3,4
 269 417 269 417 240.5 298 c 128,-1,5
 212 179 212 179 203 89 c 1,6,7
 192 6 192 6 248 -2 c 128,-1,8
 304 -10 304 -10 314 63 c 1,9,10
 320 168 320 168 340 255 c 128,-1,11
 360 342 360 342 395 463 c 128,-1,12
 430 584 430 584 479 668 c 1,13,14
 491 703 491 703 478 726 c 128,-1,15
 465 749 465 749 429 752 c 1,16,-1
 97 752 l 2,17,0
 21 752 21 752 21 693.5 c 128,-1,1
EndSplineSet
EndChar

StartChar: eight
Encoding: 56 56 27
Width: 614
Flags: W
LayerCount: 2
Fore
SplineSet
104.5 50.5 m 128,-1,1
 29 113 29 113 25.5 200 c 128,-1,2
 22 287 22 287 69 341.5 c 128,-1,3
 116 396 116 396 178 406 c 1,4,5
 87 450 87 450 72.5 515 c 128,-1,6
 58 580 58 580 79 637 c 128,-1,7
 100 694 100 694 152 728 c 128,-1,8
 204 762 204 762 307.5 764 c 128,-1,9
 411 766 411 766 469.5 731 c 128,-1,10
 528 696 528 696 548.5 630.5 c 128,-1,11
 569 565 569 565 549 507.5 c 128,-1,12
 529 450 529 450 448 411 c 1,13,14
 523 394 523 394 561 338 c 128,-1,15
 599 282 599 282 594 194.5 c 128,-1,16
 589 107 589 107 515.5 47.5 c 128,-1,17
 442 -12 442 -12 311 -12 c 128,-1,0
 180 -12 180 -12 104.5 50.5 c 128,-1,1
207.5 641.5 m 128,-1,19
 170 607 170 607 174 558 c 128,-1,20
 178 509 178 509 218 486 c 128,-1,21
 258 463 258 463 312.5 463.5 c 128,-1,22
 367 464 367 464 408.5 489.5 c 128,-1,23
 450 515 450 515 448 568.5 c 128,-1,24
 446 622 446 622 406.5 651 c 128,-1,25
 367 680 367 680 306 678 c 128,-1,18
 245 676 245 676 207.5 641.5 c 128,-1,19
255.5 345 m 128,-1,27
 209 338 209 338 171.5 297 c 128,-1,28
 134 256 134 256 141.5 195 c 128,-1,29
 149 134 149 134 199 105 c 128,-1,30
 249 76 249 76 325 78 c 128,-1,31
 401 80 401 80 438.5 114.5 c 128,-1,32
 476 149 476 149 478.5 207 c 128,-1,33
 481 265 481 265 443 301.5 c 128,-1,34
 405 338 405 338 353.5 345 c 128,-1,26
 302 352 302 352 255.5 345 c 128,-1,27
EndSplineSet
EndChar

StartChar: nine
Encoding: 57 57 28
Width: 546
Flags: W
LayerCount: 2
Fore
SplineSet
437 52 m 1,0,1
 457 196 457 196 474.5 267.5 c 128,-1,2
 492 339 492 339 517 449.5 c 128,-1,3
 542 560 542 560 494 650.5 c 128,-1,4
 446 741 446 741 358.5 758.5 c 128,-1,5
 271 776 271 776 186 746 c 128,-1,6
 101 716 101 716 58.5 629.5 c 128,-1,7
 16 543 16 543 29 454.5 c 128,-1,8
 42 366 42 366 95.5 314 c 128,-1,9
 149 262 149 262 217.5 247 c 128,-1,10
 286 232 286 232 362 262 c 1,11,12
 346 187 346 187 325 64 c 0,13,14
 313 -3 313 -3 372.5 -5 c 128,-1,15
 432 -7 432 -7 437 52 c 1,0,1
135.5 460 m 128,-1,17
 122 549 122 549 165 608.5 c 128,-1,18
 208 668 208 668 282 665 c 128,-1,19
 356 662 356 662 385 609 c 128,-1,20
 414 556 414 556 406 482 c 128,-1,21
 398 408 398 408 355.5 367.5 c 128,-1,22
 313 327 313 327 231 349 c 128,-1,16
 149 371 149 371 135.5 460 c 128,-1,17
EndSplineSet
EndChar

StartChar: colon
Encoding: 58 58 29
Width: 265
Flags: W
LayerCount: 2
Fore
SplineSet
136 -3 m 0,0,1
 104 -3 104 -3 82 19.5 c 128,-1,2
 60 42 60 42 60 75 c 0,3,4
 60 105 60 105 82 128 c 128,-1,5
 104 151 104 151 136 151 c 0,6,7
 167 151 167 151 190 128 c 128,-1,8
 213 105 213 105 213 75 c 0,9,10
 213 42 213 42 190 19.5 c 128,-1,11
 167 -3 167 -3 136 -3 c 0,0,1
136 327 m 0,12,13
 104 327 104 327 82 349.5 c 128,-1,14
 60 372 60 372 60 405 c 0,15,16
 60 435 60 435 82 458 c 128,-1,17
 104 481 104 481 136 481 c 0,18,19
 167 481 167 481 190 458 c 128,-1,20
 213 435 213 435 213 405 c 0,21,22
 213 372 213 372 190 349.5 c 128,-1,23
 167 327 167 327 136 327 c 0,12,13
EndSplineSet
EndChar

StartChar: semicolon
Encoding: 59 59 30
Width: 258
Flags: W
LayerCount: 2
Fore
SplineSet
124 -1 m 1,0,1
 92 -1 92 -1 70 21 c 128,-1,2
 48 43 48 43 48 75 c 256,3,4
 48 107 48 107 70 129.5 c 128,-1,5
 92 152 92 152 124 152 c 0,6,7
 155 152 155 152 178 129.5 c 128,-1,8
 201 107 201 107 206.5 59 c 128,-1,9
 212 11 212 11 183.5 -42 c 128,-1,10
 155 -95 155 -95 104 -126 c 1,11,12
 90 -132 90 -132 79.5 -117 c 128,-1,13
 69 -102 69 -102 85 -90 c 1,14,15
 138 -42 138 -42 124 -1 c 1,0,1
124 327 m 0,16,17
 92 327 92 327 70 349.5 c 128,-1,18
 48 372 48 372 48 405 c 0,19,20
 48 435 48 435 70 458 c 128,-1,21
 92 481 92 481 124 481 c 0,22,23
 155 481 155 481 178 458 c 128,-1,24
 201 435 201 435 201 405 c 0,25,26
 201 372 201 372 178 349.5 c 128,-1,27
 155 327 155 327 124 327 c 0,16,17
EndSplineSet
EndChar

StartChar: less
Encoding: 60 60 31
Width: 359
Flags: W
LayerCount: 2
Fore
SplineSet
332 546 m 1,0,1
 372 580 372 580 331.5 620.5 c 128,-1,2
 291 661 291 661 253 620 c 1,3,-1
 44 411 l 2,4,5
 39 407 39 407 34 402 c 0,6,7
 31 399 31 399 28 396 c 0,8,9
 2 370 2 370 21 341 c 0,10,11
 26 332 26 332 35 324 c 2,12,-1
 255 104 l 1,13,14
 289 64 289 64 329.5 104.5 c 128,-1,15
 370 145 370 145 333 179 c 1,16,-1
 149 363 l 1,17,-1
 332 546 l 1,0,1
EndSplineSet
EndChar

StartChar: equal
Encoding: 61 61 32
Width: 561
Flags: W
LayerCount: 2
Fore
SplineSet
479 391 m 1,0,1
 532 386 532 386 532 443.5 c 128,-1,2
 532 501 532 501 481 499 c 1,3,-1
 85 499 l 1,4,5
 33 503 33 503 33 445.5 c 128,-1,6
 33 388 33 388 88 391 c 1,7,-1
 479 391 l 1,0,1
479 236 m 1,8,9
 532 231 532 231 532 288.5 c 128,-1,10
 532 346 532 346 481 344 c 1,11,-1
 85 344 l 1,12,13
 33 348 33 348 33 290.5 c 128,-1,14
 33 233 33 233 88 236 c 1,15,-1
 479 236 l 1,8,9
EndSplineSet
EndChar

StartChar: greater
Encoding: 62 62 33
Width: 355
Flags: W
LayerCount: 2
Fore
SplineSet
340 341 m 0,0,1
 335 332 335 332 326 324 c 2,2,-1
 106 104 l 1,3,4
 72 64 72 64 31.5 104.5 c 128,-1,5
 -9 145 -9 145 28 179 c 1,6,-1
 212 363 l 1,7,-1
 29 546 l 1,8,9
 -10 580 -10 580 30 620.5 c 128,-1,10
 70 661 70 661 108 620 c 1,11,-1
 317 411 l 2,12,13
 322 407 322 407 327 402 c 0,14,15
 330 399 330 399 333 396 c 0,16,17
 359 370 359 370 340 341 c 0,0,1
EndSplineSet
EndChar

StartChar: question
Encoding: 63 63 34
Width: 486
Flags: W
LayerCount: 2
Fore
SplineSet
253 753.5 m 128,-1,1
 345 747 345 747 395.5 697 c 128,-1,2
 446 647 446 647 454.5 572 c 128,-1,3
 463 497 463 497 425 436 c 128,-1,4
 387 375 387 375 274 349 c 1,5,-1
 274 258 l 1,6,7
 273 196 273 196 242.5 182.5 c 128,-1,8
 212 169 212 169 186 187.5 c 128,-1,9
 160 206 160 206 163 256 c 1,10,-1
 163 377 l 1,11,12
 160 426 160 426 209 427 c 1,13,14
 275 431 275 431 315 469 c 128,-1,15
 355 507 355 507 348.5 565 c 128,-1,16
 342 623 342 623 289.5 641.5 c 128,-1,17
 237 660 237 660 197.5 649.5 c 128,-1,18
 158 639 158 639 134.5 601 c 128,-1,19
 111 563 111 563 69.5 569.5 c 128,-1,20
 28 576 28 576 30 623 c 128,-1,21
 32 670 32 670 96.5 715 c 128,-1,0
 161 760 161 760 253 753.5 c 128,-1,1
145.5 105.5 m 128,-1,23
 127 64 127 64 146.5 27.5 c 128,-1,24
 166 -9 166 -9 211.5 -9.5 c 128,-1,25
 257 -10 257 -10 279 26.5 c 128,-1,26
 301 63 301 63 283 105 c 128,-1,27
 265 147 265 147 214.5 147 c 128,-1,22
 164 147 164 147 145.5 105.5 c 128,-1,23
EndSplineSet
EndChar

StartChar: at
Encoding: 64 64 35
Width: 981
Flags: W
LayerCount: 2
Fore
SplineSet
482 791.5 m 128,-1,1
 395 787 395 787 305.5 747 c 128,-1,2
 216 707 216 707 148.5 615 c 128,-1,3
 81 523 81 523 65 406 c 128,-1,4
 49 289 49 289 77 188 c 128,-1,5
 105 87 105 87 183.5 3.5 c 128,-1,6
 262 -80 262 -80 358 -100 c 128,-1,7
 454 -120 454 -120 543 -111 c 128,-1,8
 632 -102 632 -102 641.5 -58 c 128,-1,9
 651 -14 651 -14 624.5 2.5 c 128,-1,10
 598 19 598 19 559 8.5 c 128,-1,11
 520 -2 520 -2 435.5 3.5 c 128,-1,12
 351 9 351 9 278.5 68 c 128,-1,13
 206 127 206 127 177.5 261.5 c 128,-1,14
 149 396 149 396 219 522.5 c 128,-1,15
 289 649 289 649 435 680.5 c 128,-1,16
 581 712 581 712 694.5 645.5 c 128,-1,17
 808 579 808 579 820.5 441 c 128,-1,18
 833 303 833 303 788 250.5 c 128,-1,19
 743 198 743 198 702 225.5 c 128,-1,20
 661 253 661 253 658 329 c 128,-1,21
 655 405 655 405 658 562 c 1,22,23
 583 568 583 568 498 565 c 128,-1,24
 413 562 413 562 344.5 487 c 128,-1,25
 276 412 276 412 285.5 295.5 c 128,-1,26
 295 179 295 179 398 135 c 128,-1,27
 501 91 501 91 591 178 c 1,28,29
 672 85 672 85 766 115 c 128,-1,30
 860 145 860 145 901 234.5 c 128,-1,31
 942 324 942 324 932 447.5 c 128,-1,32
 922 571 922 571 851 658 c 128,-1,33
 780 745 780 745 674.5 770.5 c 128,-1,0
 569 796 569 796 482 791.5 c 128,-1,1
549 454 m 1,34,-1
 547 277 l 1,35,36
 516 227 516 227 459 233.5 c 128,-1,37
 402 240 402 240 391 311 c 128,-1,38
 380 382 380 382 420.5 425.5 c 128,-1,39
 461 469 461 469 549 454 c 1,34,-1
EndSplineSet
EndChar

StartChar: A
Encoding: 65 65 36
Width: 679
Flags: W
LayerCount: 2
Fore
SplineSet
545 37 m 2,0,-1
 488 213 l 1,1,-1
 206 213 l 1,2,-1
 140 34 l 1,3,4
 114 -17 114 -17 66 1.5 c 128,-1,5
 18 20 18 20 42 81 c 1,6,-1
 266 701 l 2,7,8
 284 750 284 750 358 749.5 c 128,-1,9
 432 749 432 749 441 700 c 1,10,-1
 649 70 l 1,11,12
 660 11 660 11 610.5 -0.5 c 128,-1,13
 561 -12 561 -12 545 37 c 2,0,-1
361 622 m 1,14,-1
 344 622 l 1,15,-1
 238 313 l 1,16,-1
 456 313 l 1,17,-1
 361 622 l 1,14,-1
EndSplineSet
EndChar

StartChar: B
Encoding: 66 66 37
Width: 636
Flags: W
LayerCount: 2
Fore
SplineSet
113 -2 m 2,1,-1
 351 -2 l 1,2,3
 485 -3 485 -3 544.5 83 c 128,-1,4
 604 169 604 169 585 281.5 c 128,-1,5
 566 394 566 394 447 432 c 1,6,7
 529 494 529 494 516 586 c 128,-1,8
 503 678 503 678 446.5 712 c 128,-1,9
 390 746 390 746 312 749 c 1,10,-1
 114 748 l 2,11,12
 72 748 72 748 72 699 c 2,13,-1
 72 40 l 1,14,0
 71 -2 71 -2 113 -2 c 2,1,-1
403.5 552 m 128,-1,16
 405 464 405 464 305 448 c 1,17,-1
 181 447 l 1,18,-1
 181 644 l 1,19,-1
 308 644 l 1,20,15
 402 640 402 640 403.5 552 c 128,-1,16
462 287 m 128,-1,22
 494 221 494 221 461.5 166 c 128,-1,23
 429 111 429 111 349 116 c 1,24,-1
 184 116 l 1,25,-1
 183 351 l 1,26,-1
 325 351 l 1,27,21
 430 353 430 353 462 287 c 128,-1,22
EndSplineSet
EndChar

StartChar: C
Encoding: 67 67 38
Width: 668
Flags: W
LayerCount: 2
Fore
SplineSet
298.5 738.5 m 128,-1,1
 223 721 223 721 150.5 642.5 c 128,-1,2
 78 564 78 564 58.5 448 c 128,-1,3
 39 332 39 332 67 223.5 c 128,-1,4
 95 115 95 115 180 51 c 128,-1,5
 265 -13 265 -13 374.5 -10.5 c 128,-1,6
 484 -8 484 -8 542 33 c 128,-1,7
 600 74 600 74 626.5 123.5 c 128,-1,8
 653 173 653 173 612.5 203 c 128,-1,9
 572 233 572 233 515 162 c 128,-1,10
 458 91 458 91 361 103.5 c 128,-1,11
 264 116 264 116 217 178 c 128,-1,12
 170 240 170 240 167.5 362 c 128,-1,13
 165 484 165 484 229 562.5 c 128,-1,14
 293 641 293 641 378.5 642 c 128,-1,15
 464 643 464 643 492.5 603.5 c 128,-1,16
 521 564 521 564 562.5 569.5 c 128,-1,17
 604 575 604 575 607 618 c 128,-1,18
 610 661 610 661 558 704.5 c 128,-1,19
 506 748 506 748 440 752 c 128,-1,0
 374 756 374 756 298.5 738.5 c 128,-1,1
EndSplineSet
EndChar

StartChar: D
Encoding: 68 68 39
Width: 647
Flags: W
LayerCount: 2
Fore
SplineSet
104 -2 m 2,1,-1
 302 -2 l 1,2,3
 429 -11 429 -11 506.5 64 c 128,-1,4
 584 139 584 139 601.5 234 c 128,-1,5
 619 329 619 329 605.5 445 c 128,-1,6
 592 561 592 561 507 656 c 128,-1,7
 422 751 422 751 276 752 c 1,8,-1
 115 752 l 2,9,10
 75 752 75 752 74 713 c 1,11,-1
 74 31 l 1,12,0
 73 -2 73 -2 104 -2 c 2,1,-1
458.5 530 m 128,-1,14
 510 427 510 427 504 325.5 c 128,-1,15
 498 224 498 224 447.5 167 c 128,-1,16
 397 110 397 110 314 115 c 1,17,-1
 191 115 l 1,18,-1
 191 638 l 1,19,-1
 310 638 l 1,20,13
 407 633 407 633 458.5 530 c 128,-1,14
EndSplineSet
EndChar

StartChar: E
Encoding: 69 69 40
Width: 566
Flags: W
LayerCount: 2
Fore
SplineSet
476 696 m 128,-1,1
 475 748 475 748 432 748 c 2,2,-1
 115 748 l 2,3,4
 73 748 73 748 73 699 c 2,5,-1
 73 40 l 1,6,7
 72 -2 72 -2 114 -2 c 2,8,-1
 506 -2 l 1,9,10
 546 2 546 2 547 53.5 c 128,-1,11
 548 105 548 105 504 113 c 1,12,-1
 185 113 l 1,13,-1
 184 339 l 1,14,-1
 329 339 l 1,15,16
 366 345 366 345 366.5 395 c 128,-1,17
 367 445 367 445 328 446 c 1,18,-1
 182 446 l 1,19,-1
 182 642 l 1,20,-1
 436 642 l 1,21,0
 477 644 477 644 476 696 c 128,-1,1
EndSplineSet
EndChar

StartChar: F
Encoding: 70 70 41
Width: 513
Flags: W
LayerCount: 2
Fore
SplineSet
492 696.5 m 128,-1,1
 491 748 491 748 448 747 c 1,2,-1
 114 747 l 2,3,4
 72 747 72 747 72 698 c 2,5,-1
 72 38 l 1,6,7
 75 -7 75 -7 128.5 -6 c 128,-1,8
 182 -5 182 -5 184 34 c 1,9,-1
 183 337 l 1,10,-1
 348 336 l 1,11,12
 385 342 385 342 386 392.5 c 128,-1,13
 387 443 387 443 348 444 c 1,14,-1
 181 444 l 1,15,-1
 181 642 l 1,16,-1
 451 642 l 1,17,0
 493 645 493 645 492 696.5 c 128,-1,1
EndSplineSet
EndChar

StartChar: G
Encoding: 71 71 42
Width: 655
Flags: W
LayerCount: 2
Fore
SplineSet
301.5 742.5 m 128,-1,1
 218 728 218 728 142.5 655 c 128,-1,2
 67 582 67 582 48.5 449 c 128,-1,3
 30 316 30 316 61 216 c 128,-1,4
 92 116 92 116 166.5 59.5 c 128,-1,5
 241 3 241 3 347 -2.5 c 128,-1,6
 453 -8 453 -8 542 2 c 1,7,8
 594 6 594 6 606 63 c 1,9,-1
 606 348 l 1,10,11
 619 440 619 440 531 435 c 1,12,-1
 362 435 l 2,13,14
 315 435 315 435 315 379 c 128,-1,15
 315 323 315 323 359 320 c 1,16,-1
 501 319 l 1,17,-1
 501 109 l 1,18,19
 373 98 373 98 306.5 117.5 c 128,-1,20
 240 137 240 137 200.5 195.5 c 128,-1,21
 161 254 161 254 156.5 365 c 128,-1,22
 152 476 152 476 211.5 560.5 c 128,-1,23
 271 645 271 645 370.5 641 c 128,-1,24
 470 637 470 637 500.5 612.5 c 128,-1,25
 531 588 531 588 565.5 598 c 128,-1,26
 600 608 600 608 605.5 649 c 128,-1,27
 611 690 611 690 560.5 717 c 128,-1,28
 510 744 510 744 447.5 750.5 c 128,-1,0
 385 757 385 757 301.5 742.5 c 128,-1,1
EndSplineSet
EndChar

StartChar: H
Encoding: 72 72 43
Width: 656
Flags: W
LayerCount: 2
Fore
SplineSet
486 708 m 1,1,-1
 486 474 l 1,2,-1
 183 474 l 1,3,-1
 183 707 l 1,4,5
 186 756 186 756 129 756 c 128,-1,6
 72 756 72 756 74 707 c 1,7,-1
 74 32 l 1,8,9
 75 -10 75 -10 129.5 -9 c 128,-1,10
 184 -8 184 -8 184 34 c 2,11,-1
 184 360 l 1,12,-1
 489 360 l 1,13,-1
 489 35 l 1,14,15
 486 -9 486 -9 542.5 -9 c 128,-1,16
 599 -9 599 -9 597 34 c 1,17,-1
 597 708 l 1,18,19
 599 756 599 756 541.5 755.5 c 128,-1,0
 484 755 484 755 486 708 c 1,1,-1
EndSplineSet
EndChar

StartChar: I
Encoding: 73 73 44
Width: 403
Flags: W
LayerCount: 2
Fore
SplineSet
294 747 m 1,0,-1
 116 747 l 1,1,2
 59 746 59 746 58 696 c 128,-1,3
 57 646 57 646 112 644 c 1,4,-1
 149 644 l 1,5,-1
 149 103 l 1,6,-1
 100 102 l 2,7,8
 50 101 50 101 50 49 c 128,-1,9
 50 -3 50 -3 98 0 c 1,10,-1
 308 0 l 2,11,12
 357 0 357 0 357.5 50.5 c 128,-1,13
 358 101 358 101 310 103 c 1,14,-1
 259 103 l 1,15,-1
 259 645 l 1,16,-1
 298 646 l 1,17,18
 350 643 350 643 353.5 694 c 128,-1,19
 357 745 357 745 294 747 c 1,0,-1
EndSplineSet
EndChar

StartChar: J
Encoding: 74 74 45
Width: 670
Flags: W
LayerCount: 2
Fore
SplineSet
153 752 m 1,0,1
 98 755 98 755 98 697 c 128,-1,2
 98 639 98 639 156 642 c 1,3,-1
 371 642 l 1,4,-1
 371 283 l 1,5,6
 382 136 382 136 314.5 113 c 128,-1,7
 247 90 247 90 186.5 115.5 c 128,-1,8
 126 141 126 141 105.5 204.5 c 128,-1,9
 85 268 85 268 32.5 247 c 128,-1,10
 -20 226 -20 226 4.5 157.5 c 128,-1,11
 29 89 29 89 95.5 41 c 128,-1,12
 162 -7 162 -7 262 -4 c 128,-1,13
 362 -1 362 -1 414.5 45.5 c 128,-1,14
 467 92 467 92 477.5 147 c 128,-1,15
 488 202 488 202 482 276 c 1,16,-1
 482 644 l 1,17,-1
 604 644 l 1,18,19
 664 641 664 641 662.5 699 c 128,-1,20
 661 757 661 757 604 752 c 1,21,-1
 153 752 l 1,0,1
EndSplineSet
EndChar

StartChar: K
Encoding: 75 75 46
Width: 568
Flags: W
LayerCount: 2
Fore
SplineSet
70 696 m 1,1,-1
 70 53 l 2,2,3
 70 -1 70 -1 124.5 -1 c 128,-1,4
 179 -1 179 -1 181 54 c 1,5,-1
 181 325 l 1,6,-1
 238 326 l 2,7,8
 309 328 309 328 362 240 c 1,9,-1
 448 25 l 1,10,11
 473 -18 473 -18 517.5 2.5 c 128,-1,12
 562 23 562 23 547 70 c 1,13,-1
 465 264 l 1,14,15
 409 408 409 408 293 416 c 1,16,-1
 490 650 l 1,17,18
 540 696 540 696 494 735 c 128,-1,19
 448 774 448 774 409 717 c 1,20,-1
 219 491 l 1,21,22
 201 467 201 467 183 457 c 1,23,-1
 183 699 l 1,24,25
 179 751 179 751 126 751 c 128,-1,0
 73 751 73 751 70 696 c 1,1,-1
EndSplineSet
EndChar

StartChar: L
Encoding: 76 76 47
Width: 539
Flags: W
LayerCount: 2
Fore
SplineSet
74 703 m 1,1,-1
 74 72 l 1,2,3
 75 2 75 2 124 0 c 1,4,-1
 472 -1 l 1,5,6
 527 3 527 3 528 58 c 128,-1,7
 529 113 529 113 472 112 c 1,8,-1
 177 112 l 1,9,-1
 177 702 l 2,10,11
 177 748 177 748 128.5 749.5 c 128,-1,0
 80 751 80 751 74 703 c 1,1,-1
EndSplineSet
EndChar

StartChar: M
Encoding: 77 77 48
Width: 807
Flags: W
LayerCount: 2
Fore
SplineSet
627 37 m 2,0,-1
 627 590 l 1,1,-1
 455 176 l 1,2,3
 433 127 433 127 392.5 128.5 c 128,-1,4
 352 130 352 130 339 178 c 1,5,-1
 171 596 l 1,6,-1
 171 35 l 2,7,8
 171 -5 171 -5 120 -5 c 128,-1,9
 69 -5 69 -5 70 37 c 1,10,-1
 70 683 l 1,11,12
 84 752 84 752 161.5 751.5 c 128,-1,13
 239 751 239 751 255 684 c 1,14,-1
 399 314 l 1,15,-1
 561 690 l 1,16,17
 579 752 579 752 650.5 751.5 c 128,-1,18
 722 751 722 751 731 682 c 1,19,-1
 731 36 l 1,20,21
 727 -7 727 -7 677 -7 c 128,-1,22
 627 -7 627 -7 627 37 c 2,0,-1
EndSplineSet
EndChar

StartChar: N
Encoding: 78 78 49
Width: 673
Flags: W
LayerCount: 2
Fore
SplineSet
611 41 m 2,0,1
 611 4 611 4 580.5 -5 c 128,-1,2
 550 -14 550 -14 524 20 c 1,3,-1
 175 532 l 1,4,-1
 175 35 l 1,5,6
 174 -5 174 -5 122 -5 c 128,-1,7
 70 -5 70 -5 69 37 c 1,8,-1
 69 691 l 2,9,10
 69 736 69 736 105.5 746.5 c 128,-1,11
 142 757 142 757 174 720 c 1,12,-1
 506 232 l 1,13,-1
 506 696 l 1,14,15
 508 749 508 749 558.5 749 c 128,-1,16
 609 749 609 749 611 699 c 1,17,-1
 611 41 l 2,0,1
EndSplineSet
EndChar

StartChar: O
Encoding: 79 79 50
Width: 784
Flags: W
LayerCount: 2
Fore
SplineSet
389 753 m 0,0,1
 537 753 537 753 639.5 641.5 c 128,-1,2
 742 530 742 530 742 371 c 0,3,4
 742 213 742 213 638.5 101.5 c 128,-1,5
 535 -10 535 -10 389 -10 c 0,6,7
 244 -10 244 -10 140.5 101.5 c 128,-1,8
 37 213 37 213 37 371 c 0,9,10
 37 530 37 530 139.5 641.5 c 128,-1,11
 242 753 242 753 389 753 c 0,0,1
389 646 m 0,12,13
 289 646 289 646 218.5 566.5 c 128,-1,14
 148 487 148 487 148 374 c 256,15,16
 148 261 148 261 218.5 181.5 c 128,-1,17
 289 102 289 102 389 102 c 0,18,19
 490 102 490 102 560.5 181.5 c 128,-1,20
 631 261 631 261 631 374 c 256,21,22
 631 487 631 487 560.5 566.5 c 128,-1,23
 490 646 490 646 389 646 c 0,12,13
EndSplineSet
EndChar

StartChar: P
Encoding: 80 80 51
Width: 599
Flags: W
LayerCount: 2
Fore
SplineSet
74 43 m 1,1,-1
 74 697 l 1,2,3
 68 748 68 748 121 751 c 1,4,-1
 312 751 l 1,5,6
 471 755 471 755 530 660 c 128,-1,7
 589 565 589 565 571.5 467 c 128,-1,8
 554 369 554 369 492 311.5 c 128,-1,9
 430 254 430 254 290 256 c 1,10,-1
 186 256 l 1,11,-1
 186 44 l 1,12,13
 185 -5 185 -5 130 -4.5 c 128,-1,0
 75 -4 75 -4 74 43 c 1,1,-1
294 370 m 1,14,15
 407 363 407 363 440 430 c 128,-1,16
 473 497 473 497 448.5 567 c 128,-1,17
 424 637 424 637 297 636 c 1,18,-1
 186 636 l 1,19,-1
 186 370 l 1,20,-1
 294 370 l 1,14,15
EndSplineSet
EndChar

StartChar: Q
Encoding: 81 81 52
Width: 787
Flags: W
LayerCount: 2
Fore
SplineSet
459 106 m 1,0,1
 426 96 426 96 390 96 c 0,2,3
 289 96 289 96 217.5 176 c 128,-1,4
 146 256 146 256 146 370 c 256,5,6
 146 484 146 484 217.5 564 c 128,-1,7
 289 644 289 644 390 644 c 0,8,9
 492 644 492 644 563 564 c 128,-1,10
 634 484 634 484 634 370 c 256,11,12
 634 256 634 256 562 176 c 0,13,14
 558 171 558 171 553 166 c 1,15,-1
 503 257 l 1,16,17
 470 324 470 324 418 295.5 c 128,-1,18
 366 267 366 267 407 200 c 1,19,-1
 459 106 l 1,0,1
580 -133 m 1,20,21
 621 -201 621 -201 668 -175 c 128,-1,22
 715 -149 715 -149 678 -79 c 2,23,-1
 604 58 l 1,24,25
 624 75 624 75 642 95 c 0,26,27
 746 207 746 207 746 367 c 256,28,29
 746 527 746 527 642.5 639.5 c 128,-1,30
 539 752 539 752 390 752 c 0,31,32
 242 752 242 752 138.5 639.5 c 128,-1,33
 35 527 35 527 35 367 c 256,34,35
 35 207 35 207 139 94.5 c 128,-1,36
 243 -18 243 -18 390 -18 c 0,37,38
 453 -18 453 -18 508 2 c 1,39,-1
 580 -133 l 1,20,21
EndSplineSet
EndChar

StartChar: R
Encoding: 82 82 53
Width: 619
Flags: W
LayerCount: 2
Fore
SplineSet
70 38 m 1,0,1
 73 -4 73 -4 124 -4 c 128,-1,2
 175 -4 175 -4 178 35 c 1,3,-1
 178 305 l 1,4,-1
 260 305 l 1,5,6
 330 310 330 310 372 234 c 1,7,-1
 503 15 l 1,8,9
 533 -23 533 -23 577.5 7 c 128,-1,10
 622 37 622 37 591 88 c 2,11,-1
 471 287 l 1,12,13
 436 359 436 359 379 353 c 1,14,15
 491 380 491 380 511 490.5 c 128,-1,16
 531 601 531 601 465 678 c 128,-1,17
 399 755 399 755 265 748 c 1,18,-1
 121 748 l 1,19,20
 70 749 70 749 70 694 c 2,21,-1
 70 38 l 1,0,1
385 594 m 128,-1,23
 420 550 420 550 397 482 c 128,-1,24
 374 414 374 414 292 416 c 1,25,-1
 172 416 l 1,26,-1
 172 636 l 1,27,-1
 281 636 l 1,28,22
 350 638 350 638 385 594 c 128,-1,23
EndSplineSet
EndChar

StartChar: S
Encoding: 83 83 54
Width: 570
Flags: W
LayerCount: 2
Fore
SplineSet
295 754 m 128,-1,1
 172 751 172 751 112 676 c 128,-1,2
 52 601 52 601 65 518 c 128,-1,3
 78 435 78 435 152 386.5 c 128,-1,4
 226 338 226 338 286 318.5 c 128,-1,5
 346 299 346 299 393.5 268.5 c 128,-1,6
 441 238 441 238 422.5 177.5 c 128,-1,7
 404 117 404 117 331.5 102 c 128,-1,8
 259 87 259 87 208.5 117.5 c 128,-1,9
 158 148 158 148 132 185.5 c 128,-1,10
 106 223 106 223 66.5 191.5 c 128,-1,11
 27 160 27 160 47.5 119 c 128,-1,12
 68 78 68 78 135 32.5 c 128,-1,13
 202 -13 202 -13 310.5 -10 c 128,-1,14
 419 -7 419 -7 481.5 54 c 128,-1,15
 544 115 544 115 542.5 215 c 128,-1,16
 541 315 541 315 469.5 362 c 128,-1,17
 398 409 398 409 318 435 c 128,-1,18
 238 461 238 461 199.5 509.5 c 128,-1,19
 161 558 161 558 195 610 c 128,-1,20
 229 662 229 662 297 656.5 c 128,-1,21
 365 651 365 651 411 611 c 1,22,23
 453 577 453 577 487.5 610 c 128,-1,24
 522 643 522 643 485 689 c 1,25,0
 418 757 418 757 295 754 c 128,-1,1
EndSplineSet
EndChar

StartChar: T
Encoding: 84 84 55
Width: 638
Flags: W
LayerCount: 2
Fore
SplineSet
78 748 m 1,0,1
 26 749 26 749 26 693.5 c 128,-1,2
 26 638 26 638 81 638 c 2,3,-1
 267 638 l 1,4,-1
 267 39 l 1,5,6
 270 -3 270 -3 325 -3.5 c 128,-1,7
 380 -4 380 -4 382 38 c 1,8,-1
 382 640 l 1,9,-1
 569 640 l 1,10,11
 623 642 623 642 621 695.5 c 128,-1,12
 619 749 619 749 569 748 c 1,13,-1
 78 748 l 1,0,1
EndSplineSet
EndChar

StartChar: U
Encoding: 85 85 56
Width: 752
Flags: W
LayerCount: 2
Fore
SplineSet
72 703 m 1,0,-1
 73 351 l 1,1,2
 69 209 69 209 131.5 120 c 128,-1,3
 194 31 194 31 285 9 c 128,-1,4
 376 -13 376 -13 468.5 10.5 c 128,-1,5
 561 34 561 34 617.5 120.5 c 128,-1,6
 674 207 674 207 672 356 c 1,7,-1
 672 708 l 1,8,9
 662 749 662 749 610 748.5 c 128,-1,10
 558 748 558 748 552 709 c 1,11,-1
 552 352 l 1,12,13
 553 224 553 224 507.5 168 c 128,-1,14
 462 112 462 112 370.5 112.5 c 128,-1,15
 279 113 279 113 232.5 180 c 128,-1,16
 186 247 186 247 189 354 c 1,17,-1
 189 706 l 1,18,19
 192 748 192 748 129.5 746.5 c 128,-1,20
 67 745 67 745 72 703 c 1,0,-1
EndSplineSet
EndChar

StartChar: V
Encoding: 86 86 57
Width: 696
Flags: W
LayerCount: 2
Fore
SplineSet
553 711 m 1,0,-1
 362 196 l 1,1,-1
 153 714 l 1,2,3
 133 768 133 768 78.5 746 c 128,-1,4
 24 724 24 724 52 668 c 1,5,-1
 303 41 l 1,6,7
 320 -9 320 -9 364.5 -8.5 c 128,-1,8
 409 -8 409 -8 424 42 c 1,9,-1
 659 674 l 1,10,11
 672 729 672 729 620.5 747 c 128,-1,12
 569 765 569 765 553 711 c 1,0,-1
EndSplineSet
EndChar

StartChar: W
Encoding: 87 87 58
Width: 919
Flags: W
LayerCount: 2
Fore
SplineSet
783 710 m 2,0,-1
 646 146 l 1,1,-1
 521 572 l 1,2,3
 498 621 498 621 443.5 619.5 c 128,-1,4
 389 618 389 618 375 570 c 1,5,-1
 265 151 l 1,6,-1
 139 704 l 1,7,8
 122 761 122 761 69.5 746 c 128,-1,9
 17 731 17 731 37 671 c 1,10,-1
 176 61 l 2,11,12
 191 -9 191 -9 262.5 -8.5 c 128,-1,13
 334 -8 334 -8 351 60 c 2,14,-1
 451 453 l 1,15,-1
 563 53 l 2,16,17
 581 -9 581 -9 649 -8.5 c 128,-1,18
 717 -8 717 -8 732 62 c 1,19,-1
 890 679 l 1,20,21
 902 735 902 735 848.5 747 c 128,-1,22
 795 759 795 759 783 710 c 2,0,-1
EndSplineSet
EndChar

StartChar: X
Encoding: 88 88 59
Width: 593
Flags: W
LayerCount: 2
Fore
SplineSet
292 482 m 1,0,-1
 139 726 l 1,1,2
 107 767 107 767 67 743.5 c 128,-1,3
 27 720 27 720 49 670 c 1,4,-1
 223 390 l 1,5,-1
 59 114 l 2,6,7
 13 35 13 35 62.5 7.5 c 128,-1,8
 112 -20 112 -20 155 48 c 1,9,-1
 290 291 l 1,10,-1
 446 45 l 1,11,12
 493 -24 493 -24 538 7.5 c 128,-1,13
 583 39 583 39 540 107 c 2,14,-1
 361 394 l 1,15,-1
 553 669 l 1,16,17
 575 727 575 727 530.5 747.5 c 128,-1,18
 486 768 486 768 457 721 c 1,19,-1
 292 482 l 1,0,-1
EndSplineSet
EndChar

StartChar: Y
Encoding: 89 89 60
Width: 574
Flags: W
LayerCount: 2
Fore
SplineSet
346 323 m 1,0,-1
 346 36 l 1,1,2
 342 -6 342 -6 290 -5 c 128,-1,3
 238 -4 238 -4 237 39 c 1,4,-1
 237 325 l 1,5,-1
 33 677 l 1,6,7
 9 722 9 722 49.5 743.5 c 128,-1,8
 90 765 90 765 119 725 c 1,9,-1
 294 425 l 1,10,-1
 462 727 l 1,11,12
 480 764 480 764 523.5 747.5 c 128,-1,13
 567 731 567 731 550 687 c 1,14,-1
 346 323 l 1,0,-1
EndSplineSet
EndChar

StartChar: Z
Encoding: 90 90 61
Width: 609
Flags: W
LayerCount: 2
Fore
SplineSet
516 638 m 2,0,-1
 167 111 l 1,1,-1
 536 111 l 2,2,3
 588 111 588 111 588 57 c 128,-1,4
 588 3 588 3 535 -1 c 1,5,-1
 123 0 l 2,6,7
 64 1 64 1 45 42.5 c 128,-1,8
 26 84 26 84 58 125 c 1,9,-1
 399 641 l 1,10,-1
 89 641 l 1,11,12
 35 643 35 643 35.5 695.5 c 128,-1,13
 36 748 36 748 90 748 c 2,14,-1
 462 748 l 1,15,16
 521 750 521 750 530.5 712.5 c 128,-1,17
 540 675 540 675 516 638 c 2,0,-1
EndSplineSet
EndChar

StartChar: bracketleft
Encoding: 91 91 62
Width: 207
Flags: W
LayerCount: 2
Fore
SplineSet
212 1009 m 1,0,-1
 53 1009 l 1,1,2
 14 997 14 997 16 955 c 1,3,-1
 16 -180 l 1,4,5
 15 -229 15 -229 62 -227 c 1,6,-1
 218 -227 l 2,7,8
 272 -227 272 -227 275 -183.5 c 128,-1,9
 278 -140 278 -140 226 -137 c 1,10,-1
 110 -137 l 1,11,-1
 111 919 l 1,12,-1
 212 919 l 1,13,14
 273 915 273 915 276 961 c 128,-1,15
 279 1007 279 1007 212 1009 c 1,0,-1
EndSplineSet
EndChar

StartChar: backslash
Encoding: 92 92 63
Width: 384
Flags: W
LayerCount: 2
Fore
SplineSet
330 -184 m 2,0,1
 342 -220 342 -220 369 -225.5 c 128,-1,2
 396 -231 396 -231 414 -210.5 c 128,-1,3
 432 -190 432 -190 420 -157 c 1,4,-1
 83 953 l 1,5,6
 73 998 73 998 44 1008.5 c 128,-1,7
 15 1019 15 1019 -6.5 996 c 128,-1,8
 -28 973 -28 973 -9 927 c 1,9,-1
 330 -184 l 2,0,1
EndSplineSet
EndChar

StartChar: bracketright
Encoding: 93 93 64
Width: 254
Flags: W
LayerCount: 2
Fore
SplineSet
31 1009 m 1,0,-1
 190 1009 l 1,1,2
 229 997 229 997 227 955 c 1,3,-1
 227 -180 l 1,4,5
 228 -229 228 -229 181 -227 c 1,6,-1
 25 -227 l 2,7,8
 -29 -227 -29 -227 -32 -183.5 c 128,-1,9
 -35 -140 -35 -140 17 -137 c 1,10,-1
 133 -137 l 1,11,-1
 132 919 l 1,12,-1
 31 919 l 1,13,14
 -30 915 -30 915 -33 961 c 128,-1,15
 -36 1007 -36 1007 31 1009 c 1,0,-1
EndSplineSet
EndChar

StartChar: underscore
Encoding: 95 95 65
Width: 795
Flags: W
LayerCount: 2
Fore
SplineSet
80 -177 m 1,0,1
 38 -178 38 -178 30 -207 c 128,-1,2
 22 -236 22 -236 33.5 -252.5 c 128,-1,3
 45 -269 45 -269 69 -271 c 1,4,-1
 721 -271 l 2,5,6
 747 -271 747 -271 758 -251 c 128,-1,7
 769 -231 769 -231 762 -205.5 c 128,-1,8
 755 -180 755 -180 707 -177 c 1,9,-1
 80 -177 l 1,0,1
EndSplineSet
EndChar

StartChar: a
Encoding: 97 97 66
Width: 562
Flags: W
LayerCount: 2
Fore
SplineSet
507 493 m 1,1,-1
 507 30 l 1,2,3
 506 -7 506 -7 455.5 -7.5 c 128,-1,4
 405 -8 405 -8 405 31 c 2,5,-1
 405 81 l 1,6,7
 329 -15 329 -15 230.5 -5.5 c 128,-1,8
 132 4 132 4 75.5 83.5 c 128,-1,9
 19 163 19 163 29 270 c 128,-1,10
 39 377 39 377 95.5 438.5 c 128,-1,11
 152 500 152 500 208 514 c 128,-1,12
 264 528 264 528 316 518.5 c 128,-1,13
 368 509 368 509 400 463 c 1,14,-1
 400 492 l 1,15,16
 395 528 395 528 453 527.5 c 128,-1,0
 511 527 511 527 507 493 c 1,1,-1
231 416 m 128,-1,18
 174 400 174 400 143.5 325 c 128,-1,19
 113 250 113 250 141.5 176.5 c 128,-1,20
 170 103 170 103 266.5 105 c 128,-1,21
 363 107 363 107 402 210 c 1,22,-1
 402 350 l 1,23,24
 372 394 372 394 330 413 c 128,-1,17
 288 432 288 432 231 416 c 128,-1,18
EndSplineSet
EndChar

StartChar: b
Encoding: 98 98 67
Width: 590
Flags: W
LayerCount: 2
Fore
SplineSet
73 708 m 1,1,-1
 73 31 l 1,2,3
 71 -11 71 -11 126.5 -10 c 128,-1,4
 182 -9 182 -9 179 29 c 1,5,-1
 179 70 l 1,6,7
 238 -11 238 -11 339.5 -7.5 c 128,-1,8
 441 -4 441 -4 503.5 70 c 128,-1,9
 566 144 566 144 565 263 c 128,-1,10
 564 382 564 382 511 450.5 c 128,-1,11
 458 519 458 519 355 527 c 128,-1,12
 252 535 252 535 181 444 c 1,13,-1
 181 709 l 1,14,15
 182 755 182 755 125 755 c 128,-1,0
 68 755 68 755 73 708 c 1,1,-1
270 414.5 m 128,-1,17
 330 436 330 436 386 408.5 c 128,-1,18
 442 381 442 381 456 303 c 128,-1,19
 470 225 470 225 441 157.5 c 128,-1,20
 412 90 412 90 320.5 92.5 c 128,-1,21
 229 95 229 95 186 201 c 1,22,-1
 186 304 l 1,23,16
 210 393 210 393 270 414.5 c 128,-1,17
EndSplineSet
EndChar

StartChar: c
Encoding: 99 99 68
Width: 496
Flags: W
LayerCount: 2
Fore
SplineSet
85.5 436 m 128,-1,1
 27 357 27 357 26.5 253 c 128,-1,2
 26 149 26 149 75 82 c 128,-1,3
 124 15 124 15 217.5 -1 c 128,-1,4
 311 -17 311 -17 374 13.5 c 128,-1,5
 437 44 437 44 466 96 c 1,6,7
 484 144 484 144 445.5 165 c 128,-1,8
 407 186 407 186 378 143 c 1,9,10
 357 106 357 106 299.5 97 c 128,-1,11
 242 88 242 88 189 124 c 128,-1,12
 136 160 136 160 132 244 c 128,-1,13
 128 328 128 328 168.5 375.5 c 128,-1,14
 209 423 209 423 267.5 424.5 c 128,-1,15
 326 426 326 426 376 370 c 1,16,17
 415 341 415 341 447.5 372.5 c 128,-1,18
 480 404 480 404 443 454 c 1,19,20
 371 530 371 530 257.5 522.5 c 128,-1,0
 144 515 144 515 85.5 436 c 128,-1,1
EndSplineSet
EndChar

StartChar: d
Encoding: 100 100 69
Width: 583
Flags: W
LayerCount: 2
Fore
SplineSet
524 711 m 1,1,-1
 524 34 l 1,2,3
 527 -8 527 -8 471 -8.5 c 128,-1,4
 415 -9 415 -9 418 33 c 1,5,-1
 418 65 l 1,6,7
 359 -11 359 -11 252.5 -7.5 c 128,-1,8
 146 -4 146 -4 84.5 70 c 128,-1,9
 23 144 23 144 28 263 c 128,-1,10
 33 382 33 382 93.5 453.5 c 128,-1,11
 154 525 154 525 259.5 530 c 128,-1,12
 365 535 365 535 416 460 c 1,13,-1
 416 710 l 1,14,15
 414 753 414 753 468.5 754 c 128,-1,0
 523 755 523 755 524 711 c 1,1,-1
328.5 413 m 128,-1,17
 264 434 264 434 207 410 c 128,-1,18
 150 386 150 386 134.5 315.5 c 128,-1,19
 119 245 119 245 134.5 190 c 128,-1,20
 150 135 150 135 203 106 c 128,-1,21
 256 77 256 77 323.5 95.5 c 128,-1,22
 391 114 391 114 414 205 c 1,23,-1
 414 299 l 1,24,16
 393 392 393 392 328.5 413 c 128,-1,17
EndSplineSet
EndChar

StartChar: e
Encoding: 101 101 70
Width: 584
Flags: W
LayerCount: 2
Fore
SplineSet
109.5 55.5 m 128,-1,1
 36 121 36 121 32 243 c 128,-1,2
 28 365 28 365 98 448.5 c 128,-1,3
 168 532 168 532 276.5 534.5 c 128,-1,4
 385 537 385 537 454 481.5 c 128,-1,5
 523 426 523 426 527 281 c 1,6,7
 526 231 526 231 481 220 c 1,8,-1
 142 220 l 1,9,10
 147 162 147 162 192.5 126.5 c 128,-1,11
 238 91 238 91 305 91 c 128,-1,12
 372 91 372 91 417 142 c 1,13,14
 444 181 444 181 487.5 156 c 128,-1,15
 531 131 531 131 494 73 c 1,16,17
 457 28 457 28 408.5 5.5 c 128,-1,18
 360 -17 360 -17 271.5 -13.5 c 128,-1,0
 183 -10 183 -10 109.5 55.5 c 128,-1,1
145 318 m 1,20,-1
 420 318 l 1,21,22
 411 406 411 406 351 429 c 128,-1,23
 291 452 291 452 226 429 c 128,-1,19
 161 406 161 406 145 318 c 1,20,-1
EndSplineSet
EndChar

StartChar: f
Encoding: 102 102 71
Width: 354
Flags: W
LayerCount: 2
Fore
SplineSet
95 487 m 1,1,-1
 57 487 l 1,2,3
 23 486 23 486 22.5 435 c 128,-1,4
 22 384 22 384 61 384 c 2,5,-1
 102 384 l 1,6,-1
 102 35 l 1,7,8
 103 -9 103 -9 156.5 -8.5 c 128,-1,9
 210 -8 210 -8 209 34 c 1,10,-1
 209 385 l 1,11,-1
 274 385 l 2,12,13
 319 385 319 385 320.5 435.5 c 128,-1,14
 322 486 322 486 275 486 c 2,15,-1
 201 486 l 1,16,17
 167 615 167 615 215.5 638 c 128,-1,18
 264 661 264 661 290.5 644.5 c 128,-1,19
 317 628 317 628 348 637 c 128,-1,20
 379 646 379 646 380.5 691.5 c 128,-1,21
 382 737 382 737 287.5 751 c 128,-1,22
 193 765 193 765 129 700.5 c 128,-1,0
 65 636 65 636 95 487 c 1,1,-1
EndSplineSet
EndChar

StartChar: g
Encoding: 103 103 72
Width: 573
Flags: W
LayerCount: 2
Fore
SplineSet
58 381 m 128,-1,1
 20 267 20 267 47.5 167 c 128,-1,2
 75 67 75 67 148 24.5 c 128,-1,3
 221 -18 221 -18 300.5 -3 c 128,-1,4
 380 12 380 12 408 53 c 1,5,6
 418 -73 418 -73 364 -108.5 c 128,-1,7
 310 -144 310 -144 242.5 -129 c 128,-1,8
 175 -114 175 -114 148 -80 c 128,-1,9
 121 -46 121 -46 81.5 -76 c 128,-1,10
 42 -106 42 -106 80.5 -157.5 c 128,-1,11
 119 -209 119 -209 225 -227 c 128,-1,12
 331 -245 331 -245 422 -190 c 128,-1,13
 513 -135 513 -135 513 -1 c 2,14,-1
 513 488 l 1,15,16
 512 526 512 526 454 526 c 128,-1,17
 396 526 396 526 397 485 c 1,18,19
 323 548 323 548 209.5 521.5 c 128,-1,0
 96 495 96 495 58 381 c 128,-1,1
402 378 m 1,20,-1
 402 129 l 1,21,22
 264 70 264 70 201 120 c 128,-1,23
 138 170 138 170 145 288 c 128,-1,24
 152 406 152 406 242.5 426 c 128,-1,25
 333 446 333 446 402 378 c 1,20,-1
EndSplineSet
EndChar

StartChar: h
Encoding: 104 104 73
Width: 566
Flags: W
LayerCount: 2
Fore
SplineSet
60 711 m 1,1,-1
 60 34 l 1,2,3
 61 -8 61 -8 115 -7.5 c 128,-1,4
 169 -7 169 -7 172 31 c 1,5,-1
 172 343 l 1,6,7
 242 433 242 433 328 419 c 128,-1,8
 414 405 414 405 407 296 c 1,9,-1
 407 35 l 1,10,11
 404 -8 404 -8 460.5 -8.5 c 128,-1,12
 517 -9 517 -9 517 34 c 2,13,-1
 517 345 l 1,14,15
 509 496 509 496 376 522 c 128,-1,16
 243 548 243 548 170 452 c 1,17,-1
 170 710 l 2,18,19
 170 753 170 753 114.5 753 c 128,-1,0
 59 753 59 753 60 711 c 1,1,-1
EndSplineSet
EndChar

StartChar: i
Encoding: 105 105 74
Width: 256
Flags: W
LayerCount: 2
Fore
SplineSet
78 491 m 1,1,-1
 78 32 l 1,2,3
 76 -8 76 -8 135 -7.5 c 128,-1,4
 194 -7 194 -7 188 32 c 1,5,-1
 188 491 l 1,6,7
 190 527 190 527 133.5 526.5 c 128,-1,0
 77 526 77 526 78 491 c 1,1,-1
66 680 m 0,8,9
 66 707 66 707 86.5 728.5 c 128,-1,10
 107 750 107 750 135 750 c 0,11,12
 162 750 162 750 180.5 730.5 c 128,-1,13
 199 711 199 711 199 680 c 256,14,15
 199 649 199 649 179.5 629 c 128,-1,16
 160 609 160 609 133 609 c 0,17,18
 105 609 105 609 85.5 630.5 c 128,-1,19
 66 652 66 652 66 680 c 0,8,9
EndSplineSet
EndChar

StartChar: j
Encoding: 106 106 75
Width: 328
Flags: W
LayerCount: 2
Fore
SplineSet
222 515 m 1,0,-1
 97 515 l 2,1,2
 45 515 45 515 45.5 461.5 c 128,-1,3
 46 408 46 408 100 406 c 1,4,-1
 156 406 l 1,5,-1
 157 -1 l 1,6,7
 142 -74 142 -74 100 -79 c 128,-1,8
 58 -84 58 -84 41 -103.5 c 128,-1,9
 24 -123 24 -123 35.5 -153.5 c 128,-1,10
 47 -184 47 -184 108 -184.5 c 128,-1,11
 169 -185 169 -185 216 -138 c 128,-1,12
 263 -91 263 -91 267 -7 c 1,13,-1
 267 443 l 1,14,15
 277 519 277 519 222 515 c 1,0,-1
132 679 m 0,16,17
 132 706 132 706 152.5 727.5 c 128,-1,18
 173 749 173 749 201 749 c 0,19,20
 228 749 228 749 246.5 729.5 c 128,-1,21
 265 710 265 710 265 679 c 256,22,23
 265 648 265 648 245.5 628 c 128,-1,24
 226 608 226 608 199 608 c 0,25,26
 171 608 171 608 151.5 629.5 c 128,-1,27
 132 651 132 651 132 679 c 0,16,17
EndSplineSet
EndChar

StartChar: k
Encoding: 107 107 76
Width: 537
Flags: W
LayerCount: 2
Fore
SplineSet
422 12 m 1,1,-1
 254 240 l 1,2,-1
 192 180 l 1,3,-1
 192 33 l 1,4,5
 191 -9 191 -9 134 -9 c 128,-1,6
 77 -9 77 -9 77 33 c 2,7,-1
 77 708 l 1,8,9
 78 756 78 756 133.5 756 c 128,-1,10
 189 756 189 756 189 708 c 2,11,-1
 189 323 l 1,12,-1
 392 506 l 1,13,14
 425 541 425 541 463 504.5 c 128,-1,15
 501 468 501 468 471 430 c 1,16,-1
 337 316 l 1,17,-1
 508 77 l 1,18,19
 538 38 538 38 492 6 c 128,-1,0
 446 -26 446 -26 422 12 c 1,1,-1
EndSplineSet
EndChar

StartChar: l
Encoding: 108 108 77
Width: 299
Flags: W
LayerCount: 2
Fore
SplineSet
177 197 m 1,0,1
 182 119 182 119 241 103 c 1,2,3
 292 72 292 72 266 26.5 c 128,-1,4
 240 -19 240 -19 179 4 c 1,5,6
 66 53 66 53 68 166 c 1,7,-1
 69 698 l 1,8,9
 63 752 63 752 124.5 751 c 128,-1,10
 186 750 186 750 178 698 c 1,11,-1
 177 197 l 1,0,1
EndSplineSet
EndChar

StartChar: m
Encoding: 109 109 78
Width: 846
Flags: W
LayerCount: 2
Fore
SplineSet
71 483 m 1,1,-1
 71 31 l 1,2,3
 72 -5 72 -5 125.5 -5 c 128,-1,4
 179 -5 179 -5 181 30 c 1,5,-1
 181 394 l 1,6,7
 366 486 366 486 366 362 c 2,8,-1
 366 30 l 2,9,10
 366 -5 366 -5 421.5 -5 c 128,-1,11
 477 -5 477 -5 478 28 c 1,12,-1
 478 388 l 1,13,14
 661 489 661 489 663 366 c 1,15,-1
 663 32 l 1,16,17
 667 -5 667 -5 715.5 -5 c 128,-1,18
 764 -5 764 -5 772 31 c 1,19,-1
 772 379 l 1,20,21
 777 494 777 494 712 515 c 128,-1,22
 647 536 647 536 588.5 518 c 128,-1,23
 530 500 530 500 470 446 c 1,24,25
 433 538 433 538 344.5 527 c 128,-1,26
 256 516 256 516 177 454 c 1,27,-1
 177 485 l 2,28,29
 177 526 177 526 122.5 525.5 c 128,-1,0
 68 525 68 525 71 483 c 1,1,-1
EndSplineSet
EndChar

StartChar: n
Encoding: 110 110 79
Width: 591
Flags: W
LayerCount: 2
Fore
SplineSet
71 481 m 1,1,-1
 71 32 l 1,2,3
 73 -7 73 -7 127.5 -6.5 c 128,-1,4
 182 -6 182 -6 183 31 c 1,5,-1
 183 356 l 1,6,7
 242 426 242 426 338.5 426.5 c 128,-1,8
 435 427 435 427 421 299 c 1,9,-1
 421 32 l 1,10,11
 422 -5 422 -5 474 -5.5 c 128,-1,12
 526 -6 526 -6 528 33 c 1,13,-1
 528 348 l 1,14,15
 531 497 531 497 447.5 518.5 c 128,-1,16
 364 540 364 540 295 511 c 128,-1,17
 226 482 226 482 181 435 c 1,18,-1
 181 483 l 2,19,20
 181 526 181 526 125.5 526 c 128,-1,0
 70 526 70 526 71 481 c 1,1,-1
EndSplineSet
EndChar

StartChar: o
Encoding: 111 111 80
Width: 586
Flags: W
LayerCount: 2
Fore
SplineSet
90 425.5 m 128,-1,1
 39 356 39 356 41 247.5 c 128,-1,2
 43 139 43 139 92 77.5 c 128,-1,3
 141 16 141 16 197.5 -1.5 c 128,-1,4
 254 -19 254 -19 301 -19 c 128,-1,5
 348 -19 348 -19 399 -1 c 128,-1,6
 450 17 450 17 502 78.5 c 128,-1,7
 554 140 554 140 555 250.5 c 128,-1,8
 556 361 556 361 514 422 c 128,-1,9
 472 483 472 483 420.5 509 c 128,-1,10
 369 535 369 535 311 536.5 c 128,-1,11
 253 538 253 538 197 516.5 c 128,-1,0
 141 495 141 495 90 425.5 c 128,-1,1
402.5 397 m 128,-1,13
 451 350 451 350 452 259.5 c 128,-1,14
 453 169 453 169 405.5 127 c 128,-1,15
 358 85 358 85 298.5 84 c 128,-1,16
 239 83 239 83 191.5 126.5 c 128,-1,17
 144 170 144 170 143.5 257 c 128,-1,18
 143 344 143 344 190 392.5 c 128,-1,19
 237 441 237 441 295.5 442.5 c 128,-1,12
 354 444 354 444 402.5 397 c 128,-1,13
EndSplineSet
EndChar

StartChar: p
Encoding: 112 112 81
Width: 592
Flags: W
LayerCount: 2
Fore
SplineSet
54 -193 m 1,1,-1
 54 490 l 1,2,3
 50 526 50 526 105.5 526 c 128,-1,4
 161 526 161 526 160 492 c 1,5,-1
 160 443 l 1,6,7
 219 531 219 531 325.5 527.5 c 128,-1,8
 432 524 432 524 493 444.5 c 128,-1,9
 554 365 554 365 551 251.5 c 128,-1,10
 548 138 548 138 485.5 64.5 c 128,-1,11
 423 -9 423 -9 318.5 -12 c 128,-1,12
 214 -15 214 -15 162 53 c 1,13,-1
 162 -193 l 2,14,15
 162 -229 162 -229 106.5 -229 c 128,-1,0
 51 -229 51 -229 54 -193 c 1,1,-1
247 107.5 m 128,-1,17
 311 82 311 82 367 108 c 128,-1,18
 423 134 423 134 438 200 c 128,-1,19
 453 266 453 266 437.5 327 c 128,-1,20
 422 388 422 388 358.5 410.5 c 128,-1,21
 295 433 295 433 235.5 407 c 128,-1,22
 176 381 176 381 163 313 c 1,23,-1
 163 182 l 1,24,16
 183 133 183 133 247 107.5 c 128,-1,17
EndSplineSet
EndChar

StartChar: q
Encoding: 113 113 82
Width: 596
Flags: W
LayerCount: 2
Fore
SplineSet
467 -231 m 1,0,-1
 659 -121 l 1,1,2
 713 -88 713 -88 689 -46.5 c 128,-1,3
 665 -5 665 -5 610 -36 c 2,4,-1
 521 -86 l 1,5,-1
 521 482 l 1,6,7
 520 516 520 516 471 517 c 128,-1,8
 422 518 422 518 419 486 c 1,9,-1
 419 456 l 1,10,11
 360 527 360 527 258 523.5 c 128,-1,12
 156 520 156 520 93 439 c 128,-1,13
 30 358 30 358 32 248 c 128,-1,14
 34 138 34 138 95.5 67 c 128,-1,15
 157 -4 157 -4 261.5 -7 c 128,-1,16
 366 -10 366 -10 417 58 c 1,17,-1
 417 -197 l 1,18,19
 422 -244 422 -244 467 -231 c 1,0,-1
332 108.5 m 128,-1,21
 270 84 270 84 212.5 111.5 c 128,-1,22
 155 139 155 139 140 200 c 128,-1,23
 125 261 125 261 143 324.5 c 128,-1,24
 161 388 161 388 225 409 c 128,-1,25
 289 430 289 430 348.5 398 c 128,-1,26
 408 366 408 366 414 293 c 1,27,-1
 414 218 l 1,28,20
 394 133 394 133 332 108.5 c 128,-1,21
EndSplineSet
EndChar

StartChar: r
Encoding: 114 114 83
Width: 455
Flags: W
LayerCount: 2
Fore
SplineSet
68 489 m 1,1,-1
 68 32 l 1,2,3
 70 -9 70 -9 124 -8.5 c 128,-1,4
 178 -8 178 -8 179 32 c 1,5,-1
 179 299 l 1,6,7
 176 383 176 383 226 411.5 c 128,-1,8
 276 440 276 440 319 432.5 c 128,-1,9
 362 425 362 425 380.5 405.5 c 128,-1,10
 399 386 399 386 422.5 394 c 128,-1,11
 446 402 446 402 451.5 434 c 128,-1,12
 457 466 457 466 424.5 498.5 c 128,-1,13
 392 531 392 531 316.5 530 c 128,-1,14
 241 529 241 529 177 445 c 1,15,-1
 177 489 l 2,16,17
 177 526 177 526 122 526 c 128,-1,0
 67 526 67 526 68 489 c 1,1,-1
EndSplineSet
EndChar

StartChar: s
Encoding: 115 115 84
Width: 483
Flags: W
LayerCount: 2
Fore
SplineSet
178 531.5 m 128,-1,1
 120 515 120 515 83 469.5 c 128,-1,2
 46 424 46 424 54.5 355.5 c 128,-1,3
 63 287 63 287 115.5 258 c 128,-1,4
 168 229 168 229 271 218.5 c 128,-1,5
 374 208 374 208 362.5 143 c 128,-1,6
 351 78 351 78 265.5 80.5 c 128,-1,7
 180 83 180 83 131 141 c 128,-1,8
 82 199 82 199 42.5 162 c 128,-1,9
 3 125 3 125 54.5 64.5 c 128,-1,10
 106 4 106 4 199.5 -11 c 128,-1,11
 293 -26 293 -26 365 3 c 128,-1,12
 437 32 437 32 461.5 111.5 c 128,-1,13
 486 191 486 191 442 250 c 128,-1,14
 398 309 398 309 283.5 314.5 c 128,-1,15
 169 320 169 320 155 365 c 128,-1,16
 141 410 141 410 175.5 433 c 128,-1,17
 210 456 210 456 268 447.5 c 128,-1,18
 326 439 326 439 345 419 c 128,-1,19
 364 399 364 399 382.5 398 c 128,-1,20
 401 397 401 397 417 414 c 128,-1,21
 433 431 433 431 428 455.5 c 128,-1,22
 423 480 423 480 393.5 504 c 128,-1,23
 364 528 364 528 300 538 c 128,-1,0
 236 548 236 548 178 531.5 c 128,-1,1
EndSplineSet
EndChar

StartChar: t
Encoding: 116 116 85
Width: 522
Flags: W
LayerCount: 2
Fore
SplineSet
110 707 m 1,1,-1
 110 502 l 1,2,-1
 65 502 l 1,3,4
 21 504 21 504 22 452.5 c 128,-1,5
 23 401 23 401 66 402 c 1,6,-1
 107 402 l 1,7,-1
 107 237 l 1,8,9
 97 120 97 120 158 55 c 128,-1,10
 219 -10 219 -10 316.5 -7.5 c 128,-1,11
 414 -5 414 -5 490 99 c 1,12,13
 529 177 529 177 477.5 201.5 c 128,-1,14
 426 226 426 226 399 155 c 1,15,16
 352 87 352 87 280.5 104.5 c 128,-1,17
 209 122 209 122 213 234 c 1,18,-1
 214 402 l 1,19,-1
 389 402 l 2,20,21
 431 402 431 402 431.5 452.5 c 128,-1,22
 432 503 432 503 387 502 c 1,23,-1
 218 502 l 1,24,-1
 218 702 l 1,25,26
 220 752 220 752 164 753 c 128,-1,0
 108 754 108 754 110 707 c 1,1,-1
EndSplineSet
EndChar

StartChar: u
Encoding: 117 117 86
Width: 589
Flags: W
LayerCount: 2
Fore
SplineSet
518 31 m 1,1,-1
 518 488 l 1,2,3
 516 526 516 526 462 526 c 128,-1,4
 408 526 408 526 407 491 c 1,5,-1
 407 203 l 1,6,7
 332 88 332 88 253 99 c 128,-1,8
 174 110 174 110 180 226 c 1,9,-1
 180 489 l 1,10,11
 179 525 179 525 124.5 525.5 c 128,-1,12
 70 526 70 526 67 490 c 1,13,-1
 67 177 l 1,14,15
 78 25 78 25 209.5 -2.5 c 128,-1,16
 341 -30 341 -30 409 95 c 1,17,-1
 409 30 l 2,18,19
 409 -8 409 -8 464 -8 c 128,-1,0
 519 -8 519 -8 518 31 c 1,1,-1
EndSplineSet
EndChar

StartChar: v
Encoding: 118 118 87
Width: 517
Flags: W
LayerCount: 2
Fore
SplineSet
307 28 m 1,0,1
 290 -2 290 -2 247.5 -2 c 128,-1,2
 205 -2 205 -2 188 30 c 1,3,-1
 18 461 l 1,4,5
 9 498 9 498 58 513 c 128,-1,6
 107 528 107 528 121 493 c 2,7,-1
 249 160 l 1,8,-1
 393 494 l 1,9,10
 409 527 409 527 456.5 513.5 c 128,-1,11
 504 500 504 500 489 457 c 1,12,-1
 307 28 l 1,0,1
EndSplineSet
EndChar

StartChar: w
Encoding: 119 119 88
Width: 707
Flags: W
LayerCount: 2
Fore
SplineSet
576 492 m 1,0,-1
 493 158 l 1,1,-1
 405 476 l 1,2,3
 389 511 389 511 337 510 c 128,-1,4
 285 509 285 509 276 474 c 2,5,-1
 197 151 l 1,6,-1
 119 495 l 1,7,8
 104 530 104 530 57 517.5 c 128,-1,9
 10 505 10 505 24 466 c 1,10,-1
 126 40 l 1,11,12
 136 -9 136 -9 193.5 -8.5 c 128,-1,13
 251 -8 251 -8 262 39 c 2,14,-1
 342 378 l 1,15,-1
 430 34 l 1,16,17
 443 -9 443 -9 498 -8.5 c 128,-1,18
 553 -8 553 -8 559 41 c 1,19,-1
 676 468 l 1,20,21
 683 507 683 507 634.5 516.5 c 128,-1,22
 586 526 586 526 576 492 c 1,0,-1
EndSplineSet
EndChar

StartChar: x
Encoding: 120 120 89
Width: 539
Flags: W
LayerCount: 2
Fore
SplineSet
270 353 m 1,0,-1
 149 503 l 1,1,2
 105 544 105 544 64.5 510.5 c 128,-1,3
 24 477 24 477 58 435 c 2,4,-1
 199 264 l 1,5,-1
 49 91 l 1,6,7
 10 56 10 56 51 17.5 c 128,-1,8
 92 -21 92 -21 123 12 c 1,9,-1
 268 186 l 1,10,-1
 413 16 l 1,11,12
 440 -21 440 -21 485.5 16 c 128,-1,13
 531 53 531 53 495 88 c 1,14,-1
 331 272 l 1,15,-1
 489 441 l 1,16,17
 518 484 518 484 478.5 516 c 128,-1,18
 439 548 439 548 402 499 c 1,19,-1
 270 353 l 1,0,-1
EndSplineSet
EndChar

StartChar: y
Encoding: 121 121 90
Width: 600
Flags: W
LayerCount: 2
Fore
SplineSet
548 439 m 1,0,-1
 261 -193 l 1,1,2
 239 -246 239 -246 186.5 -222 c 128,-1,3
 134 -198 134 -198 166 -143 c 1,4,-1
 253 52 l 1,5,-1
 56 434 l 1,6,7
 23 494 23 494 75 517.5 c 128,-1,8
 127 541 127 541 151 483 c 1,9,-1
 311 163 l 1,10,-1
 447 482 l 1,11,12
 469 540 469 540 521.5 519.5 c 128,-1,13
 574 499 574 499 548 439 c 1,0,-1
EndSplineSet
EndChar

StartChar: z
Encoding: 122 122 91
Width: 515
Flags: W
LayerCount: 2
Fore
SplineSet
96 518 m 2,0,1
 48 518 48 518 48 465 c 128,-1,2
 48 412 48 412 96 412 c 2,3,-1
 320 412 l 1,4,-1
 63 124 l 1,5,6
 26 85 26 85 38.5 42.5 c 128,-1,7
 51 0 51 0 94 0 c 2,8,-1
 435 -1 l 1,9,10
 489 4 489 4 489 52.5 c 128,-1,11
 489 101 489 101 431 106 c 1,12,-1
 181 106 l 1,13,-1
 442 408 l 2,14,15
 477 450 477 450 467 486.5 c 128,-1,16
 457 523 457 523 396 518 c 1,17,-1
 96 518 l 2,0,1
EndSplineSet
EndChar

StartChar: braceleft
Encoding: 123 123 92
Width: 303
Flags: W
LayerCount: 2
Fore
SplineSet
113 793 m 1,1,-1
 113 564 l 1,2,3
 104 467 104 467 20 394 c 1,4,5
 104 318 104 318 113 221 c 1,6,-1
 113 -8 l 1,7,8
 122 -147 122 -147 200 -210 c 1,9,10
 258 -242 258 -242 286 -220 c 128,-1,11
 314 -198 314 -198 307.5 -170 c 128,-1,12
 301 -142 301 -142 256 -118 c 1,13,14
 215 -90 215 -90 212 -10 c 1,15,-1
 213 226 l 1,16,17
 217 337 217 337 133 391 c 1,18,19
 217 448 217 448 213 559 c 1,20,-1
 212 795 l 1,21,22
 215 875 215 875 256 903 c 1,23,24
 301 927 301 927 303 955.5 c 128,-1,25
 305 984 305 984 281.5 1005.5 c 128,-1,26
 258 1027 258 1027 200 995 c 1,27,0
 122 932 122 932 113 793 c 1,1,-1
EndSplineSet
EndChar

StartChar: bar
Encoding: 124 124 93
Width: 247
Flags: W
LayerCount: 2
Fore
SplineSet
177 959 m 1,1,-1
 177 -168 l 1,2,3
 176 -208 176 -208 155 -219.5 c 128,-1,4
 134 -231 134 -231 112 -217.5 c 128,-1,5
 90 -204 90 -204 90 -169 c 2,6,-1
 90 959 l 1,7,8
 89 995 89 995 111 1007.5 c 128,-1,9
 133 1020 133 1020 156 1009.5 c 128,-1,0
 179 999 179 999 177 959 c 1,1,-1
EndSplineSet
EndChar

StartChar: braceright
Encoding: 125 125 94
Width: 293
Flags: W
LayerCount: 2
Fore
SplineSet
196 793 m 1,1,-1
 196 564 l 1,2,3
 205 467 205 467 289 394 c 1,4,5
 205 318 205 318 196 221 c 1,6,-1
 196 -8 l 1,7,8
 187 -147 187 -147 109 -210 c 1,9,10
 51 -242 51 -242 23 -220 c 128,-1,11
 -5 -198 -5 -198 1.5 -170 c 128,-1,12
 8 -142 8 -142 53 -118 c 1,13,14
 94 -90 94 -90 97 -10 c 1,15,-1
 96 226 l 1,16,17
 92 337 92 337 176 391 c 1,18,19
 92 448 92 448 96 559 c 1,20,-1
 97 795 l 1,21,22
 94 875 94 875 53 903 c 1,23,24
 8 927 8 927 6 955.5 c 128,-1,25
 4 984 4 984 27.5 1005.5 c 128,-1,26
 51 1027 51 1027 109 995 c 1,27,0
 187 932 187 932 196 793 c 1,1,-1
EndSplineSet
EndChar

StartChar: sterling
Encoding: 163 163 95
Width: 586
Flags: W
LayerCount: 2
Fore
SplineSet
361 360 m 1,0,1
 421 361 421 361 422 411.5 c 128,-1,2
 423 462 423 462 367 463 c 1,3,-1
 230 463 l 1,4,-1
 230 543 l 1,5,6
 226 639 226 639 319.5 648 c 128,-1,7
 413 657 413 657 439 591 c 1,8,9
 470 554 470 554 508.5 575 c 128,-1,10
 547 596 547 596 532 649 c 1,11,12
 465 772 465 772 303 747 c 128,-1,13
 141 722 141 722 127 555 c 1,14,-1
 127 460 l 1,15,-1
 90 460 l 1,16,17
 43 458 43 458 43.5 411.5 c 128,-1,18
 44 365 44 365 88 359 c 1,19,-1
 126 359 l 1,20,-1
 126 306 l 1,21,-1
 90 306 l 1,22,23
 43 301 43 301 43 258.5 c 128,-1,24
 43 216 43 216 88 211 c 1,25,-1
 123 211 l 1,26,27
 114 109 114 109 66.5 103 c 128,-1,28
 19 97 19 97 20.5 47.5 c 128,-1,29
 22 -2 22 -2 69 -4 c 1,30,-1
 506 -4 l 1,31,32
 564 -10 564 -10 566 48 c 128,-1,33
 568 106 568 106 504 102 c 1,34,-1
 181 102 l 1,35,36
 240 144 240 144 230 212 c 1,37,-1
 369 212 l 1,38,39
 420 211 420 211 421.5 261 c 128,-1,40
 423 311 423 311 367 309 c 1,41,-1
 230 309 l 1,42,-1
 230 360 l 1,43,-1
 361 360 l 1,0,1
EndSplineSet
EndChar

StartChar: copyright
Encoding: 169 169 96
Width: 443
Flags: W
LayerCount: 2
Fore
SplineSet
149.5 646 m 128,-1,1
 126 614 126 614 126.5 575.5 c 128,-1,2
 127 537 127 537 152 508.5 c 128,-1,3
 177 480 177 480 214 474 c 128,-1,4
 251 468 251 468 276.5 485 c 128,-1,5
 302 502 302 502 309.5 524 c 128,-1,6
 317 546 317 546 297 554 c 128,-1,7
 277 562 277 562 270 544 c 128,-1,8
 263 526 263 526 242 521 c 128,-1,9
 221 516 221 516 200 529 c 128,-1,10
 179 542 179 542 175 574.5 c 128,-1,11
 171 607 171 607 186 623.5 c 128,-1,12
 201 640 201 640 226.5 640.5 c 128,-1,13
 252 641 252 641 265.5 624.5 c 128,-1,14
 279 608 279 608 296.5 618.5 c 128,-1,15
 314 629 314 629 307.5 646.5 c 128,-1,16
 301 664 301 664 273.5 677 c 128,-1,17
 246 690 246 690 209.5 684 c 128,-1,0
 173 678 173 678 149.5 646 c 128,-1,1
131 477 m 128,-1,19
 171 435 171 435 226 435 c 0,20,21
 282 435 282 435 322 476.5 c 128,-1,22
 362 518 362 518 362 579 c 256,23,24
 362 640 362 640 324 680 c 128,-1,25
 286 720 286 720 231 720 c 0,26,27
 175 720 175 720 133 677.5 c 128,-1,28
 91 635 91 635 91 578 c 0,29,18
 91 519 91 519 131 477 c 128,-1,19
32 578 m 0,30,31
 32 660 32 660 92.5 721.5 c 128,-1,32
 153 783 153 783 234 783 c 0,33,34
 312 783 312 783 366 725 c 128,-1,35
 420 667 420 667 420 580 c 0,36,37
 420 492 420 492 363 432.5 c 128,-1,38
 306 373 306 373 226 373 c 0,39,40
 148 373 148 373 90 433.5 c 128,-1,41
 32 494 32 494 32 578 c 0,30,31
EndSplineSet
EndChar

StartChar: registered
Encoding: 174 174 97
Width: 430
Flags: W
LayerCount: 2
Fore
SplineSet
120 477 m 128,-1,1
 160 435 160 435 215 435 c 0,2,3
 271 435 271 435 311 476.5 c 128,-1,4
 351 518 351 518 351 579 c 256,5,6
 351 640 351 640 313 680 c 128,-1,7
 275 720 275 720 220 720 c 0,8,9
 164 720 164 720 122 677.5 c 128,-1,10
 80 635 80 635 80 578 c 0,11,0
 80 519 80 519 120 477 c 128,-1,1
21 578 m 0,12,13
 21 660 21 660 81.5 721.5 c 128,-1,14
 142 783 142 783 223 783 c 0,15,16
 301 783 301 783 355 725 c 128,-1,17
 409 667 409 667 409 580 c 0,18,19
 409 492 409 492 352 432.5 c 128,-1,20
 295 373 295 373 215 373 c 0,21,22
 137 373 137 373 79 433.5 c 128,-1,23
 21 494 21 494 21 578 c 0,12,13
141 488 m 1,24,25
 142 475 142 475 162.5 475 c 128,-1,26
 183 475 183 475 185 488 c 1,27,-1
 185 554 l 1,28,-1
 195 554 l 2,29,30
 216 554 216 554 229 534 c 2,31,-1
 265 481 l 1,32,33
 274 470 274 470 294 479 c 128,-1,34
 314 488 314 488 304 501 c 1,35,-1
 270 552 l 1,36,37
 259 572 259 572 242 569 c 1,38,39
 277 578 277 578 283 610 c 128,-1,40
 289 642 289 642 266 660.5 c 128,-1,41
 243 679 243 679 202 676 c 1,42,-1
 157 676 l 2,43,44
 141 676 141 676 141 662 c 2,45,-1
 141 488 l 1,24,25
233.5 634.5 m 128,-1,47
 246 626 246 626 239.5 608 c 128,-1,48
 233 590 233 590 206 590 c 2,49,-1
 182 590 l 1,50,-1
 182 641 l 1,51,-1
 206 641 l 1,52,46
 221 643 221 643 233.5 634.5 c 128,-1,47
EndSplineSet
EndChar

StartChar: multiply
Encoding: 215 215 98
Width: 456
Flags: W
LayerCount: 2
Fore
SplineSet
47 262 m 1,0,1
 7 228 7 228 47.5 187.5 c 128,-1,2
 88 147 88 147 122 184 c 1,3,-1
 226 288 l 1,4,-1
 327 187 l 1,5,6
 362 147 362 147 402.5 187.5 c 128,-1,7
 443 228 443 228 402 265 c 1,8,-1
 303 364 l 1,9,-1
 402 464 l 1,10,11
 442 499 442 499 401.5 539.5 c 128,-1,12
 361 580 361 580 324 539 c 1,13,-1
 226 441 l 1,14,-1
 125 542 l 1,15,16
 91 582 91 582 50.5 541.5 c 128,-1,17
 10 501 10 501 47 467 c 1,18,-1
 149 364 l 1,19,-1
 47 262 l 1,0,1
EndSplineSet
EndChar

StartChar: quoteleft
Encoding: 8216 8216 99
Width: 195
Flags: W
LayerCount: 2
Fore
SplineSet
101 700 m 1,0,1
 133 700 133 700 155 678 c 128,-1,2
 177 656 177 656 177 624 c 256,3,4
 177 592 177 592 155 569.5 c 128,-1,5
 133 547 133 547 101 547 c 0,6,7
 70 547 70 547 47 569.5 c 128,-1,8
 24 592 24 592 18.5 640 c 128,-1,9
 13 688 13 688 41.5 741 c 128,-1,10
 70 794 70 794 121 825 c 1,11,12
 135 831 135 831 145.5 816 c 128,-1,13
 156 801 156 801 140 789 c 1,14,15
 87 741 87 741 101 700 c 1,0,1
EndSplineSet
EndChar

StartChar: quoteright
Encoding: 8217 8217 100
Width: 195
Flags: W
LayerCount: 2
Fore
SplineSet
95 676 m 1,0,1
 63 676 63 676 41 698 c 128,-1,2
 19 720 19 720 19 752 c 256,3,4
 19 784 19 784 41 806.5 c 128,-1,5
 63 829 63 829 95 829 c 0,6,7
 126 829 126 829 149 806.5 c 128,-1,8
 172 784 172 784 177.5 736 c 128,-1,9
 183 688 183 688 154.5 635 c 128,-1,10
 126 582 126 582 75 551 c 1,11,12
 61 545 61 545 50.5 560 c 128,-1,13
 40 575 40 575 56 587 c 1,14,15
 109 635 109 635 95 676 c 1,0,1
EndSplineSet
EndChar

StartChar: quotedblleft
Encoding: 8220 8220 101
Width: 365
Flags: W
LayerCount: 2
Fore
SplineSet
268 700 m 1,0,1
 300 700 300 700 322 678 c 128,-1,2
 344 656 344 656 344 624 c 256,3,4
 344 592 344 592 322 569.5 c 128,-1,5
 300 547 300 547 268 547 c 0,6,7
 237 547 237 547 214 569.5 c 128,-1,8
 191 592 191 592 185.5 640 c 128,-1,9
 180 688 180 688 208.5 741 c 128,-1,10
 237 794 237 794 288 825 c 1,11,12
 302 831 302 831 312.5 816 c 128,-1,13
 323 801 323 801 307 789 c 1,14,15
 254 741 254 741 268 700 c 1,0,1
102 700 m 1,16,17
 134 700 134 700 156 678 c 128,-1,18
 178 656 178 656 178 624 c 256,19,20
 178 592 178 592 156 569.5 c 128,-1,21
 134 547 134 547 102 547 c 0,22,23
 71 547 71 547 48 569.5 c 128,-1,24
 25 592 25 592 19.5 640 c 128,-1,25
 14 688 14 688 42.5 741 c 128,-1,26
 71 794 71 794 122 825 c 1,27,28
 136 831 136 831 146.5 816 c 128,-1,29
 157 801 157 801 141 789 c 1,30,31
 88 741 88 741 102 700 c 1,16,17
EndSplineSet
EndChar

StartChar: quotedblright
Encoding: 8221 8221 102
Width: 368
Flags: W
LayerCount: 2
Fore
SplineSet
95 676 m 1,0,1
 63 676 63 676 41 698 c 128,-1,2
 19 720 19 720 19 752 c 256,3,4
 19 784 19 784 41 806.5 c 128,-1,5
 63 829 63 829 95 829 c 0,6,7
 126 829 126 829 149 806.5 c 128,-1,8
 172 784 172 784 177.5 736 c 128,-1,9
 183 688 183 688 154.5 635 c 128,-1,10
 126 582 126 582 75 551 c 1,11,12
 61 545 61 545 50.5 560 c 128,-1,13
 40 575 40 575 56 587 c 1,14,15
 109 635 109 635 95 676 c 1,0,1
261 676 m 1,16,17
 229 676 229 676 207 698 c 128,-1,18
 185 720 185 720 185 752 c 256,19,20
 185 784 185 784 207 806.5 c 128,-1,21
 229 829 229 829 261 829 c 0,22,23
 292 829 292 829 315 806.5 c 128,-1,24
 338 784 338 784 343.5 736 c 128,-1,25
 349 688 349 688 320.5 635 c 128,-1,26
 292 582 292 582 241 551 c 1,27,28
 227 545 227 545 216.5 560 c 128,-1,29
 206 575 206 575 222 587 c 1,30,31
 275 635 275 635 261 676 c 1,16,17
EndSplineSet
EndChar

StartChar: bullet
Encoding: 8226 8226 103
Width: 460
Flags: W
LayerCount: 2
Fore
SplineSet
232 557 m 256,0,1
 304 557 304 557 354 507 c 128,-1,2
 404 457 404 457 404 385 c 256,3,4
 404 313 404 313 354 263 c 128,-1,5
 304 213 304 213 232 213 c 256,6,7
 160 213 160 213 110 263 c 128,-1,8
 60 313 60 313 60 385 c 256,9,10
 60 457 60 457 110 507 c 128,-1,11
 160 557 160 557 232 557 c 256,0,1
EndSplineSet
EndChar

StartChar: trademark
Encoding: 8482 8482 104
Width: 661
Flags: W
LayerCount: 2
Fore
SplineSet
306 723 m 1,0,1
 299 717 299 717 287 717 c 2,2,-1
 215 717 l 1,3,-1
 215 475 l 1,4,5
 214 449 214 449 179 449 c 128,-1,6
 144 449 144 449 143 476 c 1,7,-1
 143 715 l 1,8,-1
 66 715 l 2,9,10
 39 715 39 715 39 750 c 128,-1,11
 39 785 39 785 65 785 c 2,12,-1
 287 785 l 2,13,14
 306 785 306 785 312 767 c 1,15,16
 323 784 323 784 348 784 c 0,17,18
 384 784 384 784 391 750 c 1,19,-1
 451 602 l 1,20,-1
 519 753 l 1,21,22
 527 785 527 785 560.5 785 c 128,-1,23
 594 785 594 785 598 749 c 1,24,-1
 598 473 l 1,25,26
 596 449 596 449 564.5 449 c 128,-1,27
 533 449 533 449 533 473 c 2,28,-1
 532 657 l 1,29,-1
 476 532 l 2,30,31
 466 511 466 511 448 511.5 c 128,-1,32
 430 512 430 512 425 533 c 1,33,-1
 374 659 l 1,34,-1
 374 471 l 2,35,36
 374 449 374 449 339.5 449 c 128,-1,37
 305 449 305 449 305 472 c 2,38,-1
 306 723 l 1,0,1
EndSplineSet
EndChar

StartChar: Euro
Encoding: 8364 8364 105
Width: 620
Flags: W
LayerCount: 2
Fore
SplineSet
190 390 m 1,0,-1
 445 390 l 2,1,2
 469 390 469 390 479.5 413 c 128,-1,3
 490 436 490 436 483.5 460 c 128,-1,4
 477 484 477 484 431 487 c 1,5,-1
 201 487 l 1,6,7
 207 540 207 540 252.5 592.5 c 128,-1,8
 298 645 298 645 370 646 c 128,-1,9
 442 647 442 647 471.5 620 c 128,-1,10
 501 593 501 593 535 601 c 128,-1,11
 569 609 569 609 574 650 c 128,-1,12
 579 691 579 691 528.5 718.5 c 128,-1,13
 478 746 478 746 429.5 750 c 128,-1,14
 381 754 381 754 304.5 737.5 c 128,-1,15
 228 721 228 721 164.5 647.5 c 128,-1,16
 101 574 101 574 90 486 c 1,17,18
 18 496 18 496 13 438 c 128,-1,19
 8 380 8 380 81 384 c 1,20,-1
 79 348 l 1,21,22
 9 352 9 352 8.5 294.5 c 128,-1,23
 8 237 8 237 90 247 c 1,24,25
 103 131 103 131 179.5 66 c 128,-1,26
 256 1 256 1 356.5 -5.5 c 128,-1,27
 457 -12 457 -12 511 18.5 c 128,-1,28
 565 49 565 49 590.5 85 c 128,-1,29
 616 121 616 121 585.5 149.5 c 128,-1,30
 555 178 555 178 502 130 c 128,-1,31
 449 82 449 82 364.5 91 c 128,-1,32
 280 100 280 100 239 153.5 c 128,-1,33
 198 207 198 207 199 251 c 1,34,-1
 441 251 l 1,35,36
 466 252 466 252 476.5 270.5 c 128,-1,37
 487 289 487 289 480.5 316 c 128,-1,38
 474 343 474 343 428 346 c 1,39,-1
 190 346 l 1,40,-1
 190 390 l 1,0,-1
EndSplineSet
EndChar

StartChar: half
Encoding: 189 189 106
Width: 562
Flags: W
LayerCount: 2
Fore
SplineSet
126 163 m 1,0,1
 94 128 94 128 65.5 153.5 c 128,-1,2
 37 179 37 179 69 211 c 1,3,-1
 356 598 l 2,4,5
 382 634 382 634 413 611.5 c 128,-1,6
 444 589 444 589 415 553 c 1,7,-1
 126 163 l 1,0,1
268 314 m 1,9,10
 253 275 253 275 266.5 255 c 128,-1,11
 280 235 280 235 302.5 238.5 c 128,-1,12
 325 242 325 242 333 271 c 128,-1,13
 341 300 341 300 366.5 313 c 128,-1,14
 392 326 392 326 417.5 304.5 c 128,-1,15
 443 283 443 283 427 255 c 128,-1,16
 411 227 411 227 380 195 c 1,17,-1
 284 86 l 1,18,19
 257 61 257 61 266 28.5 c 128,-1,20
 275 -4 275 -4 309 -2 c 1,21,-1
 499 -2 l 2,22,23
 541 -2 541 -2 542 42 c 128,-1,24
 543 86 543 86 501 88 c 1,25,-1
 390 87 l 1,26,-1
 465 173 l 1,27,28
 507 212 507 212 514.5 250.5 c 128,-1,29
 522 289 522 289 510 323 c 128,-1,30
 498 357 498 357 474 372 c 128,-1,31
 450 387 450 387 415.5 393.5 c 128,-1,32
 381 400 381 400 335 382 c 128,-1,8
 289 364 289 364 268 314 c 1,9,10
132.5 350.5 m 128,-1,34
 90 350 90 350 92 397 c 1,35,-1
 92 617 l 1,36,-1
 85 609 l 1,37,38
 45 579 45 579 22.5 611.5 c 128,-1,39
 0 644 0 644 43 677 c 1,40,-1
 113 740 l 1,41,42
 137 756 137 756 155 743.5 c 128,-1,43
 173 731 173 731 171 676 c 1,44,-1
 171 398 l 1,45,33
 175 351 175 351 132.5 350.5 c 128,-1,34
EndSplineSet
EndChar

StartChar: quarter
Encoding: 188 188 107
Width: 612
Flags: W
LayerCount: 2
Fore
SplineSet
516 87 m 1,0,-1
 516 39 l 2,1,2
 516 -5 516 -5 471.5 -5 c 128,-1,3
 427 -5 427 -5 429 40 c 1,4,-1
 429 89 l 1,5,-1
 303 89 l 1,6,7
 238 96 238 96 263 174 c 2,8,-1
 319 355 l 1,9,10
 339 404 339 404 376.5 386.5 c 128,-1,11
 414 369 414 369 393 322 c 1,12,-1
 349 179 l 1,13,-1
 430 179 l 1,14,-1
 430 346 l 1,15,16
 432 394 432 394 472 392.5 c 128,-1,17
 512 391 512 391 516 344 c 1,18,-1
 516 178 l 1,19,-1
 561 178 l 1,20,21
 594 175 594 175 593.5 133.5 c 128,-1,22
 593 92 593 92 555 87 c 1,23,-1
 516 87 l 1,0,-1
148 163 m 1,24,25
 116 128 116 128 87.5 153 c 128,-1,26
 59 178 59 178 91 211 c 1,27,-1
 378 597 l 2,28,29
 404 633 404 633 435 610.5 c 128,-1,30
 466 588 466 588 436 552 c 1,31,-1
 148 163 l 1,24,25
130.5 350.5 m 128,-1,33
 88 350 88 350 90 397 c 1,34,-1
 90 617 l 1,35,-1
 83 609 l 1,36,37
 43 579 43 579 20.5 611.5 c 128,-1,38
 -2 644 -2 644 41 677 c 1,39,-1
 111 740 l 1,40,41
 135 756 135 756 153 743.5 c 128,-1,42
 171 731 171 731 169 676 c 1,43,-1
 169 398 l 1,44,32
 173 351 173 351 130.5 350.5 c 128,-1,33
EndSplineSet
EndChar

StartChar: three
Encoding: 190 190 108
Width: 650
Flags: W
LayerCount: 2
Fore
SplineSet
187 162 m 1,0,1
 156 127 156 127 127 152.5 c 128,-1,2
 98 178 98 178 130 210 c 1,3,-1
 416 594 l 1,4,5
 442 631 442 631 473 608.5 c 128,-1,6
 504 586 504 586 474 550 c 1,7,-1
 187 162 l 1,0,1
557 87 m 1,8,-1
 557 39 l 2,9,10
 557 -5 557 -5 512.5 -5 c 128,-1,11
 468 -5 468 -5 469 40 c 1,12,-1
 469 89 l 1,13,-1
 343 89 l 1,14,15
 278 96 278 96 303 174 c 2,16,-1
 359 356 l 1,17,18
 380 404 380 404 417.5 386.5 c 128,-1,19
 455 369 455 369 434 322 c 1,20,-1
 390 180 l 1,21,-1
 470 180 l 1,22,-1
 470 346 l 1,23,24
 472 395 472 395 512.5 393 c 128,-1,25
 553 391 553 391 557 344 c 1,26,-1
 557 179 l 1,27,-1
 601 179 l 1,28,29
 635 175 635 175 634.5 134 c 128,-1,30
 634 93 634 93 596 87 c 1,31,-1
 557 87 l 1,8,-1
67 751 m 2,32,33
 40 751 40 751 40.5 715.5 c 128,-1,34
 41 680 41 680 68 683 c 1,35,-1
 173 683 l 1,36,-1
 112 618 l 1,37,38
 88 602 88 602 107.5 577 c 128,-1,39
 127 552 127 552 147 566 c 0,40,41
 161 576 161 576 182.5 564.5 c 128,-1,42
 204 553 204 553 213 526.5 c 128,-1,43
 222 500 222 500 207 471.5 c 128,-1,44
 192 443 192 443 154.5 441 c 128,-1,45
 117 439 117 439 83 484 c 1,46,47
 67 510 67 510 36 488 c 128,-1,48
 5 466 5 466 23 443 c 1,49,50
 47 402 47 402 91 384 c 128,-1,51
 135 366 135 366 184.5 373 c 128,-1,52
 234 380 234 380 268.5 431 c 128,-1,53
 303 482 303 482 288 548 c 128,-1,54
 273 614 273 614 203 621 c 1,55,-1
 265 692 l 1,56,57
 276 716 276 716 263.5 735.5 c 128,-1,58
 251 755 251 755 222 751 c 1,59,-1
 67 751 l 2,32,33
EndSplineSet
EndChar

StartChar: divide
Encoding: 247 247 109
Width: 571
Flags: W
LayerCount: 2
Fore
SplineSet
284 128 m 0,0,1
 252 128 252 128 230 150.5 c 128,-1,2
 208 173 208 173 208 206 c 0,3,4
 208 236 208 236 230 259 c 128,-1,5
 252 282 252 282 284 282 c 0,6,7
 315 282 315 282 338 259 c 128,-1,8
 361 236 361 236 361 206 c 0,9,10
 361 173 361 173 338 150.5 c 128,-1,11
 315 128 315 128 284 128 c 0,0,1
284 458 m 0,12,13
 252 458 252 458 230 480.5 c 128,-1,14
 208 503 208 503 208 536 c 0,15,16
 208 566 208 566 230 589 c 128,-1,17
 252 612 252 612 284 612 c 0,18,19
 315 612 315 612 338 589 c 128,-1,20
 361 566 361 566 361 536 c 0,21,22
 361 503 361 503 338 480.5 c 128,-1,23
 315 458 315 458 284 458 c 0,12,13
481 317 m 1,24,25
 534 312 534 312 534 369.5 c 128,-1,26
 534 427 534 427 483 425 c 1,27,-1
 87 425 l 1,28,29
 35 429 35 429 35 371.5 c 128,-1,30
 35 314 35 314 90 317 c 1,31,-1
 481 317 l 1,24,25
EndSplineSet
EndChar

StartChar: hyphen
Encoding: 45 45 110
Width: 571
Flags: W
LayerCount: 2
Fore
SplineSet
481 317 m 1,0,1
 534 312 534 312 534 369.5 c 128,-1,2
 534 427 534 427 483 425 c 1,3,-1
 87 425 l 1,4,5
 35 429 35 429 35 371.5 c 128,-1,6
 35 314 35 314 90 317 c 1,7,-1
 481 317 l 1,0,1
EndSplineSet
EndChar

StartChar: glyph111
Encoding: 65539 -1 111
Width: 286
Flags: W
LayerCount: 2
Fore
SplineSet
18 513 m 256,0,1
 18 536 18 536 35 553 c 128,-1,2
 52 570 52 570 74 570 c 256,3,4
 96 570 96 570 111 554 c 128,-1,5
 126 538 126 538 126 513 c 0,6,7
 126 489 126 489 110 472.5 c 128,-1,8
 94 456 94 456 72 456 c 256,9,10
 50 456 50 456 34 473 c 128,-1,11
 18 490 18 490 18 513 c 256,0,1
159 513 m 256,12,13
 159 538 159 538 177.5 557 c 128,-1,14
 196 576 196 576 221 576 c 0,15,16
 245 576 245 576 261.5 558.5 c 128,-1,17
 278 541 278 541 278 513 c 0,18,19
 278 486 278 486 260.5 468 c 128,-1,20
 243 450 243 450 219 450 c 0,21,22
 194 450 194 450 176.5 469 c 128,-1,23
 159 488 159 488 159 513 c 256,12,13
20 369 m 0,24,25
 20 392 20 392 37 409 c 128,-1,26
 54 426 54 426 75 426 c 0,27,28
 97 426 97 426 112 410 c 128,-1,29
 127 394 127 394 127 369 c 0,30,31
 127 346 127 346 111 329.5 c 128,-1,32
 95 313 95 313 73 313 c 0,33,34
 52 313 52 313 36 330 c 128,-1,35
 20 347 20 347 20 369 c 0,24,25
65 333 m 1,37,-1
 65 359 l 1,38,39
 69 353 69 353 78.5 353.5 c 128,-1,40
 88 354 88 354 94 360.5 c 128,-1,41
 100 367 100 367 100 377.5 c 128,-1,42
 100 388 100 388 94.5 395 c 128,-1,43
 89 402 89 402 79.5 402 c 128,-1,44
 70 402 70 402 65 396 c 1,45,-1
 65 399 l 2,46,47
 65 402 65 402 60 402 c 128,-1,48
 55 402 55 402 55 398 c 2,49,-1
 55 334 l 2,50,51
 55 330 55 330 59.5 330 c 128,-1,36
 64 330 64 330 65 333 c 1,37,-1
65 374 m 1,52,-1
 65 382 l 1,53,54
 66 390 66 390 71.5 392 c 128,-1,55
 77 394 77 394 82.5 392 c 128,-1,56
 88 390 88 390 89.5 384.5 c 128,-1,57
 91 379 91 379 89.5 373 c 128,-1,58
 88 367 88 367 83 365 c 128,-1,59
 78 363 78 363 72.5 364.5 c 128,-1,60
 67 366 67 366 65 374 c 1,52,-1
12 229 m 0,61,62
 12 252 12 252 29 269 c 128,-1,63
 46 286 46 286 67 286 c 0,64,65
 89 286 89 286 104 270 c 128,-1,66
 119 254 119 254 119 229 c 0,67,68
 119 206 119 206 103 189.5 c 128,-1,69
 87 173 87 173 65 173 c 0,70,71
 44 173 44 173 28 190 c 128,-1,72
 12 207 12 207 12 229 c 0,61,62
57 193 m 1,74,-1
 57 219 l 1,75,76
 61 213 61 213 70.5 213.5 c 128,-1,77
 80 214 80 214 86 220.5 c 128,-1,78
 92 227 92 227 92 237.5 c 128,-1,79
 92 248 92 248 86.5 255 c 128,-1,80
 81 262 81 262 71.5 262 c 128,-1,81
 62 262 62 262 57 256 c 1,82,-1
 57 259 l 2,83,84
 57 262 57 262 52 262 c 128,-1,85
 47 262 47 262 47 258 c 2,86,-1
 47 194 l 2,87,88
 47 190 47 190 51.5 190 c 128,-1,73
 56 190 56 190 57 193 c 1,74,-1
57 234 m 1,89,-1
 57 242 l 1,90,91
 58 250 58 250 63.5 252 c 128,-1,92
 69 254 69 254 74.5 252 c 128,-1,93
 80 250 80 250 81.5 244.5 c 128,-1,94
 83 239 83 239 81.5 233 c 128,-1,95
 80 227 80 227 75 225 c 128,-1,96
 70 223 70 223 64.5 224.5 c 128,-1,97
 59 226 59 226 57 234 c 1,89,-1
168 369 m 0,98,99
 168 392 168 392 185 409 c 128,-1,100
 202 426 202 426 223 426 c 0,101,102
 245 426 245 426 260 410 c 128,-1,103
 275 394 275 394 275 369 c 0,104,105
 275 346 275 346 259 329.5 c 128,-1,106
 243 313 243 313 221 313 c 0,107,108
 200 313 200 313 184 330 c 128,-1,109
 168 347 168 347 168 369 c 0,98,99
213 333 m 1,111,-1
 213 359 l 1,112,113
 217 353 217 353 226.5 353.5 c 128,-1,114
 236 354 236 354 242 360.5 c 128,-1,115
 248 367 248 367 248 377.5 c 128,-1,116
 248 388 248 388 242.5 395 c 128,-1,117
 237 402 237 402 227.5 402 c 128,-1,118
 218 402 218 402 213 396 c 1,119,-1
 213 399 l 2,120,121
 213 402 213 402 208 402 c 128,-1,122
 203 402 203 402 203 398 c 2,123,-1
 203 334 l 2,124,125
 203 330 203 330 207.5 330 c 128,-1,110
 212 330 212 330 213 333 c 1,111,-1
213 374 m 1,126,-1
 213 382 l 1,127,128
 214 390 214 390 219.5 392 c 128,-1,129
 225 394 225 394 230.5 392 c 128,-1,130
 236 390 236 390 237.5 384.5 c 128,-1,131
 239 379 239 379 237.5 373 c 128,-1,132
 236 367 236 367 231 365 c 128,-1,133
 226 363 226 363 220.5 364.5 c 128,-1,134
 215 366 215 366 213 374 c 1,126,-1
315 436 m 256,135,136
 315 460 315 460 332.5 477.5 c 128,-1,137
 350 495 350 495 373 495 c 0,138,139
 395 495 395 495 410.5 478.5 c 128,-1,140
 426 462 426 462 426 437 c 256,141,142
 426 412 426 412 409.5 394.5 c 128,-1,143
 393 377 393 377 370 377 c 0,144,145
 348 377 348 377 331.5 394.5 c 128,-1,146
 315 412 315 412 315 436 c 256,135,136
EndSplineSet
EndChar

StartChar: uni000E
Encoding: 14 14 112
Width: 1000
Flags: W
LayerCount: 2
Fore
SplineSet
799 -154 m 1,0,-1
 800 -198 l 1,1,-1
 0 -198 l 1,2,-1
 1 -154 l 1,3,4
 0 -71 0 -71 31.5 -16.5 c 128,-1,5
 63 38 63 38 140 71 c 0,6,7
 180 89 180 89 203 103 c 128,-1,8
 226 117 226 117 238 136 c 128,-1,9
 250 155 250 155 253 174 c 128,-1,10
 256 193 256 193 256 228 c 0,11,12
 256 244 256 244 251 255.5 c 128,-1,13
 246 267 246 267 238.5 274 c 128,-1,14
 231 281 231 281 223 301 c 128,-1,15
 215 321 215 321 210 352 c 0,16,17
 208 364 208 364 202 369.5 c 128,-1,18
 196 375 196 375 189.5 377 c 128,-1,19
 183 379 183 379 177.5 394 c 128,-1,20
 172 409 172 409 170 438 c 1,21,22
 170 453 170 453 174 464 c 128,-1,23
 178 475 178 475 181 478 c 2,24,-1
 185 481 l 1,25,26
 177 531 177 531 174 570 c 0,27,28
 172 600 172 600 187 637 c 128,-1,29
 202 674 202 674 236 700 c 1,30,31
 251 710 251 710 276 732.5 c 128,-1,32
 301 755 301 755 316.5 767 c 128,-1,33
 332 779 332 779 363.5 788.5 c 128,-1,34
 395 798 395 798 434 796 c 1,35,36
 373 764 373 764 411 725 c 1,37,38
 444 716 444 716 469 696 c 128,-1,39
 494 676 494 676 505.5 652.5 c 128,-1,40
 517 629 517 629 522 608.5 c 128,-1,41
 527 588 527 588 526 570 c 1,42,-1
 515 481 l 1,43,44
 530 472 530 472 530 438 c 1,45,46
 528 409 528 409 522.5 394 c 128,-1,47
 517 379 517 379 510.5 377 c 128,-1,48
 504 375 504 375 498 369.5 c 128,-1,49
 492 364 492 364 490 352 c 0,50,51
 485 321 485 321 477 301 c 128,-1,52
 469 281 469 281 461.5 274 c 128,-1,53
 454 267 454 267 449 255.5 c 128,-1,54
 444 244 444 244 444 228 c 0,55,56
 444 166 444 166 473.5 130.5 c 128,-1,57
 503 95 503 95 584 61 c 1,58,59
 629 41 629 41 663 22 c 128,-1,60
 697 3 697 3 730.5 -23.5 c 128,-1,61
 764 -50 764 -50 782 -83 c 128,-1,62
 800 -116 800 -116 799 -154 c 1,0,-1
850 302 m 1,63,-1
 1000 302 l 1,64,-1
 1000 202 l 1,65,-1
 850 202 l 1,66,-1
 850 52 l 1,67,-1
 750 52 l 1,68,-1
 750 202 l 1,69,-1
 600 202 l 1,70,-1
 600 302 l 1,71,-1
 750 302 l 1,72,-1
 750 452 l 1,73,-1
 850 452 l 1,74,-1
 850 302 l 1,63,-1
EndSplineSet
EndChar

StartChar: uni000F
Encoding: 15 15 113
Width: 1000
Flags: W
LayerCount: 2
Fore
SplineSet
251 546 m 1,0,-1
 749 546 l 1,1,-1
 749 81 l 1,2,-1
 251 81 l 1,3,-1
 251 546 l 1,0,-1
EndSplineSet
EndChar

StartChar: uni0010
Encoding: 16 16 114
Width: 1024
Flags: W
LayerCount: 2
Fore
SplineSet
853 654 m 128,-1,1
 771 736 771 736 654.5 736 c 128,-1,2
 538 736 538 736 455 654 c 1,3,4
 381 579 381 579 373.5 474 c 128,-1,5
 366 369 366 369 429 286 c 1,6,-1
 385 243 l 1,7,8
 380 244 380 244 374 244 c 0,9,10
 323 250 323 250 283 209 c 2,11,-1
 102 29 l 2,12,13
 71 -3 71 -3 67 -43 c 128,-1,14
 63 -83 63 -83 89 -108.5 c 128,-1,15
 115 -134 115 -134 155 -130.5 c 128,-1,16
 195 -127 195 -127 226 -96 c 2,17,-1
 407 85 l 2,18,19
 442 120 442 120 442 164 c 1,20,21
 444 176 444 176 442 189 c 1,22,-1
 484 231 l 1,23,24
 566 168 566 168 672 174.5 c 128,-1,25
 778 181 778 181 853 256 c 0,26,27
 935 339 935 339 935 455.5 c 128,-1,0
 935 572 935 572 853 654 c 128,-1,1
795 596 m 128,-1,29
 853 538 853 538 853 455.5 c 128,-1,30
 853 373 853 373 795 314.5 c 128,-1,31
 737 256 737 256 654.5 256 c 128,-1,32
 572 256 572 256 513.5 314.5 c 128,-1,33
 455 373 455 373 455 455.5 c 128,-1,34
 455 538 455 538 513.5 596 c 128,-1,35
 572 654 572 654 654.5 654 c 128,-1,28
 737 654 737 654 795 596 c 128,-1,29
EndSplineSet
EndChar

StartChar: uni0011
Encoding: 17 17 115
Width: 1024
Flags: W
LayerCount: 2
Fore
SplineSet
229 596 m 1,0,-1
 229 594 l 1,1,-1
 229 592 l 1,2,-1
 228 584 l 1,3,-1
 228 522 l 1,4,-1
 228 24 l 2,5,6
 228 14 228 14 234.5 6.5 c 128,-1,7
 241 -1 241 -1 250.5 -2.5 c 128,-1,8
 260 -4 260 -4 268 1 c 2,9,-1
 272 3 l 1,10,-1
 330 37 l 1,11,-1
 758 285 l 1,12,13
 783 302 783 302 766 325 c 1,14,-1
 764 327 l 1,15,-1
 762 329 l 1,16,-1
 760 331 l 1,17,-1
 758 332 l 1,18,-1
 751 337 l 1,19,-1
 698 368 l 1,20,-1
 269 616 l 1,21,22
 253 620 253 620 241.5 614.5 c 128,-1,23
 230 609 230 609 229 596 c 1,0,-1
736 335 m 1024,24,-1
EndSplineSet
EndChar

StartChar: uni0012
Encoding: 18 18 116
Width: 1024
Flags: W
LayerCount: 2
Fore
SplineSet
503 543 m 128,-1,1
 296 542 296 542 93 291 c 0,2,3
 85 282 85 282 85 269 c 2,4,-1
 85 264 l 2,5,6
 85 252 85 252 93 243 c 0,7,8
 290 -5 290 -5 497 -4 c 128,-1,9
 704 -3 704 -3 907 247 c 0,10,11
 915 257 915 257 915 269 c 2,12,-1
 915 274 l 2,13,14
 915 286 915 286 907 296 c 0,15,0
 710 544 710 544 503 543 c 128,-1,1
503 473 m 128,-1,17
 668 474 668 474 836 272 c 1,18,19
 662 66 662 66 497 66 c 0,20,21
 332 65 332 65 164 267 c 1,22,16
 338 472 338 472 503 473 c 128,-1,17
500 414 m 0,23,24
 442 414 442 414 401 373 c 128,-1,25
 360 332 360 332 360 274 c 128,-1,26
 360 216 360 216 401 175 c 128,-1,27
 442 134 442 134 500 134 c 128,-1,28
 558 134 558 134 599 175 c 128,-1,29
 640 216 640 216 640 274 c 0,30,31
 640 322 640 322 611 359 c 1,32,-1
 520 314 l 1,33,-1
 555 403 l 1,34,35
 529 414 529 414 500 414 c 0,23,24
EndSplineSet
EndChar

StartChar: uni0013
Encoding: 19 19 117
Width: 1024
Flags: W
LayerCount: 2
Fore
SplineSet
201 558 m 1,0,1
 141 498 141 498 109.5 419 c 128,-1,2
 78 340 78 340 78 260 c 128,-1,3
 78 180 78 180 109.5 101 c 128,-1,4
 141 22 141 22 201 -39 c 0,5,6
 282 -120 282 -120 391 -148.5 c 128,-1,7
 500 -177 500 -177 609 -148.5 c 128,-1,8
 718 -120 718 -120 799 -39 c 0,9,10
 859 22 859 22 890.5 101 c 128,-1,11
 922 180 922 180 922 260 c 128,-1,12
 922 340 922 340 890.5 419 c 128,-1,13
 859 498 859 498 799 558 c 0,14,15
 715 642 715 642 600 670 c 1,16,-1
 625 765 l 1,17,-1
 369 678 l 1,18,-1
 548 475 l 1,19,-1
 574 572 l 1,20,21
 662 552 662 552 727 487 c 0,22,23
 821 392 821 392 821 259.5 c 128,-1,24
 821 127 821 127 727 33 c 128,-1,25
 633 -61 633 -61 500 -61 c 128,-1,26
 367 -61 367 -61 273 33 c 128,-1,27
 179 127 179 127 179 259.5 c 128,-1,28
 179 392 179 392 273 487 c 1,29,-1
 201 558 l 1,0,1
EndSplineSet
EndChar

StartChar: uni0014
Encoding: 20 20 118
Width: 1024
Flags: W
LayerCount: 2
Fore
SplineSet
620 676 m 0,0,1
 581 636 581 636 570.5 581.5 c 128,-1,2
 560 527 560 527 581 478 c 1,3,4
 468 318 468 318 323 213 c 1,5,6
 274 235 274 235 218 225 c 128,-1,7
 162 215 162 215 122 175 c 0,8,9
 85 138 85 138 73.5 87 c 128,-1,10
 62 36 62 36 78 -10 c 1,11,-1
 181 93 l 1,12,-1
 255 89 l 1,13,-1
 294 50 l 1,14,-1
 298 -24 l 1,15,-1
 195 -127 l 1,16,17
 241 -143 241 -143 292 -131.5 c 128,-1,18
 343 -120 343 -120 380 -83 c 0,19,20
 416 -47 416 -47 428 2.5 c 128,-1,21
 440 52 440 52 425 98 c 1,22,23
 540 256 540 256 704 371 c 1,24,25
 750 359 750 359 796.5 371.5 c 128,-1,26
 843 384 843 384 878 419 c 0,27,28
 915 455 915 455 926.5 506 c 128,-1,29
 938 557 938 557 922 603 c 1,30,-1
 819 500 l 1,31,-1
 745 504 l 1,32,-1
 706 543 l 1,33,-1
 702 618 l 1,34,-1
 805 721 l 1,35,36
 759 736 759 736 708 724.5 c 128,-1,37
 657 713 657 713 620 676 c 0,0,1
EndSplineSet
EndChar

StartChar: uni0015
Encoding: 21 21 119
Width: 1024
Flags: W
LayerCount: 2
Fore
SplineSet
259 746 m 2,0,1
 251 746 251 746 245.5 740.5 c 128,-1,2
 240 735 240 735 240 727 c 2,3,-1
 240 686 l 1,4,-1
 140 686 l 2,5,6
 123 686 123 686 111.5 674.5 c 128,-1,7
 100 663 100 663 100 646 c 2,8,-1
 100 86 l 1,9,-1
 99 -94 l 2,10,11
 99 -111 99 -111 110.5 -122.5 c 128,-1,12
 122 -134 122 -134 139 -134 c 2,13,-1
 859 -134 l 2,14,15
 875 -134 875 -134 887 -122.5 c 128,-1,16
 899 -111 899 -111 899 -94 c 2,17,-1
 900 66 l 1,18,-1
 900 86 l 1,19,-1
 900 646 l 2,20,21
 900 663 900 663 888.5 674.5 c 128,-1,22
 877 686 877 686 860 686 c 2,23,-1
 760 686 l 1,24,-1
 760 727 l 2,25,26
 760 735 760 735 754.5 740.5 c 128,-1,27
 749 746 749 746 741 746 c 2,28,-1
 699 746 l 2,29,30
 691 746 691 746 685.5 740.5 c 128,-1,31
 680 735 680 735 680 727 c 2,32,-1
 680 686 l 1,33,-1
 612 686 l 1,34,-1
 612 723 l 2,35,36
 612 732 612 732 605 739 c 128,-1,37
 598 746 598 746 589 746 c 2,38,-1
 555 746 l 2,39,40
 546 746 546 746 539 739 c 128,-1,41
 532 732 532 732 532 723 c 2,42,-1
 532 686 l 1,43,-1
 472 686 l 1,44,-1
 472 723 l 2,45,46
 472 732 472 732 465 739 c 128,-1,47
 458 746 458 746 449 746 c 2,48,-1
 415 746 l 2,49,50
 406 746 406 746 399 739 c 128,-1,51
 392 732 392 732 392 723 c 2,52,-1
 392 686 l 1,53,-1
 320 686 l 1,54,-1
 320 727 l 2,55,56
 320 735 320 735 314.5 740.5 c 128,-1,57
 309 746 309 746 301 746 c 2,58,-1
 259 746 l 2,0,1
199 606 m 2,59,-1
 240 606 l 1,60,-1
 240 565 l 2,61,62
 240 557 240 557 245.5 551.5 c 128,-1,63
 251 546 251 546 259 546 c 2,64,-1
 301 546 l 2,65,66
 309 546 309 546 314.5 551.5 c 128,-1,67
 320 557 320 557 320 565 c 2,68,-1
 320 606 l 1,69,-1
 392 606 l 1,70,-1
 392 569 l 2,71,72
 392 560 392 560 399 553 c 128,-1,73
 406 546 406 546 415 546 c 2,74,-1
 449 546 l 2,75,76
 458 546 458 546 465 553 c 128,-1,77
 472 560 472 560 472 569 c 2,78,-1
 472 606 l 1,79,-1
 532 606 l 1,80,-1
 532 569 l 2,81,82
 532 560 532 560 539 553 c 128,-1,83
 546 546 546 546 555 546 c 2,84,-1
 589 546 l 2,85,86
 598 546 598 546 605 553 c 128,-1,87
 612 560 612 560 612 569 c 2,88,-1
 612 606 l 1,89,-1
 680 606 l 1,90,-1
 680 565 l 2,91,92
 680 557 680 557 685.5 551.5 c 128,-1,93
 691 546 691 546 699 546 c 2,94,-1
 741 546 l 2,95,96
 749 546 749 546 754.5 551.5 c 128,-1,97
 760 557 760 557 760 565 c 2,98,-1
 760 606 l 1,99,-1
 801 606 l 2,100,101
 809 606 809 606 814.5 600.5 c 128,-1,102
 820 595 820 595 820 587 c 2,103,-1
 820 86 l 1,104,-1
 819 -35 l 2,105,106
 819 -43 819 -43 813.5 -48.5 c 128,-1,107
 808 -54 808 -54 800 -54 c 2,108,-1
 198 -54 l 2,109,110
 190 -54 190 -54 184.5 -48.5 c 128,-1,111
 179 -43 179 -43 179 -35 c 2,112,-1
 180 66 l 1,113,-1
 180 86 l 1,114,-1
 180 587 l 2,115,116
 180 595 180 595 185.5 600.5 c 128,-1,117
 191 606 191 606 199 606 c 2,59,-1
240 486 m 1,118,-1
 240 426 l 1,119,-1
 760 426 l 1,120,-1
 760 486 l 1,121,-1
 240 486 l 1,118,-1
240 386 m 1,122,-1
 240 326 l 1,123,-1
 600 326 l 1,124,-1
 600 386 l 1,125,-1
 240 386 l 1,122,-1
240 286 m 1,126,-1
 240 226 l 1,127,-1
 660 226 l 1,128,-1
 660 286 l 1,129,-1
 240 286 l 1,126,-1
240 186 m 1,130,-1
 240 126 l 1,131,-1
 720 126 l 1,132,-1
 720 186 l 1,133,-1
 240 186 l 1,130,-1
240 86 m 1,134,-1
 240 26 l 1,135,-1
 540 26 l 1,136,-1
 540 86 l 1,137,-1
 240 86 l 1,134,-1
EndSplineSet
EndChar

StartChar: uni0016
Encoding: 22 22 120
Width: 1024
Flags: W
LayerCount: 2
Fore
SplineSet
120 518 m 2,0,1
 95 518 95 518 77 500 c 128,-1,2
 59 482 59 482 59 456 c 2,3,-1
 59 -98 l 1,4,-1
 941 -98 l 1,5,-1
 941 456 l 2,6,7
 941 482 941 482 923 500 c 128,-1,8
 905 518 905 518 880 518 c 2,9,-1
 120 518 l 2,0,1
260 714 m 1,10,-1
 209 647 l 1,11,-1
 161 647 l 2,12,13
 144 647 144 647 132 633 c 128,-1,14
 120 619 120 619 120 599 c 2,15,-1
 120 575 l 2,16,17
 120 568 120 568 122 563 c 1,18,-1
 878 563 l 1,19,20
 880 568 880 568 880 575 c 2,21,-1
 880 599 l 2,22,23
 880 619 880 619 868 633 c 128,-1,24
 856 647 856 647 839 647 c 2,25,-1
 426 647 l 1,26,-1
 380 714 l 1,27,-1
 260 714 l 1,10,-1
EndSplineSet
EndChar

StartChar: uni0017
Encoding: 23 23 121
Width: 1024
Flags: W
LayerCount: 2
Fore
SplineSet
500 743 m 128,-1,1
 318 743 318 743 189 614 c 128,-1,2
 60 485 60 485 60 303 c 128,-1,3
 60 121 60 121 189 -8 c 128,-1,4
 318 -137 318 -137 500 -137 c 128,-1,5
 682 -137 682 -137 811 -8 c 128,-1,6
 940 121 940 121 940 303 c 128,-1,7
 940 485 940 485 811 614 c 128,-1,0
 682 743 682 743 500 743 c 128,-1,1
267 370 m 1,8,-1
 733 370 l 1,9,-1
 733 236 l 1,10,-1
 267 236 l 1,11,-1
 267 370 l 1,8,-1
EndSplineSet
EndChar

StartChar: uni0018
Encoding: 24 24 122
Width: 1024
Flags: W
LayerCount: 2
Fore
SplineSet
500 738 m 128,-1,1
 410 738 410 738 329 703.5 c 128,-1,2
 248 669 248 669 189 610 c 128,-1,3
 130 551 130 551 95 469.5 c 128,-1,4
 60 388 60 388 60 298.5 c 128,-1,5
 60 209 60 209 95 127.5 c 128,-1,6
 130 46 130 46 189 -13 c 128,-1,7
 248 -72 248 -72 329 -107 c 128,-1,8
 410 -142 410 -142 500 -142 c 128,-1,9
 590 -142 590 -142 671 -107 c 128,-1,10
 752 -72 752 -72 811 -13 c 128,-1,11
 870 46 870 46 905 127.5 c 128,-1,12
 940 209 940 209 940 298.5 c 128,-1,13
 940 388 940 388 905 469.5 c 128,-1,14
 870 551 870 551 811 610 c 128,-1,15
 752 669 752 669 671 703.5 c 128,-1,0
 590 738 590 738 500 738 c 128,-1,1
433 532 m 1,16,-1
 567 532 l 1,17,-1
 567 365 l 1,18,-1
 733 365 l 1,19,-1
 733 232 l 1,20,-1
 567 232 l 1,21,-1
 567 65 l 1,22,-1
 433 65 l 1,23,-1
 433 232 l 1,24,-1
 267 232 l 1,25,-1
 267 365 l 1,26,-1
 433 365 l 1,27,-1
 433 532 l 1,16,-1
EndSplineSet
EndChar

StartChar: uni0019
Encoding: 25 25 123
Width: 1024
Flags: W
LayerCount: 2
Fore
SplineSet
325 669 m 2,0,1
 317 669 317 669 312 663 c 128,-1,2
 307 657 307 657 307 649 c 2,3,-1
 307 529 l 2,4,5
 307 521 307 521 312 515 c 128,-1,6
 317 509 317 509 325 509 c 2,7,-1
 470 509 l 1,8,-1
 470 389 l 1,9,-1
 325 389 l 2,10,11
 317 389 317 389 312 383 c 128,-1,12
 307 377 307 377 307 369 c 2,13,-1
 307 249 l 2,14,15
 307 241 307 241 312 235 c 128,-1,16
 317 229 317 229 325 229 c 2,17,-1
 386 229 l 1,18,-1
 290 109 l 1,19,-1
 79 109 l 2,20,21
 72 109 72 109 67 103 c 128,-1,22
 62 97 62 97 62 89 c 2,23,-1
 62 -31 l 2,24,25
 62 -39 62 -39 67 -45 c 128,-1,26
 72 -51 72 -51 79 -51 c 2,27,-1
 430 -51 l 2,28,29
 437 -51 437 -51 442 -45 c 128,-1,30
 447 -39 447 -39 447 -31 c 2,31,-1
 447 89 l 2,32,33
 447 97 447 97 442 103 c 128,-1,34
 437 109 437 109 430 109 c 2,35,-1
 361 109 l 1,36,-1
 451 229 l 1,37,-1
 549 229 l 1,38,-1
 639 109 l 1,39,-1
 570 109 l 2,40,41
 563 109 563 109 558 103 c 128,-1,42
 553 97 553 97 553 89 c 2,43,-1
 553 -31 l 2,44,45
 553 -39 553 -39 558 -45 c 128,-1,46
 563 -51 563 -51 570 -51 c 2,47,-1
 921 -51 l 2,48,49
 928 -51 928 -51 933 -45 c 128,-1,50
 938 -39 938 -39 938 -31 c 2,51,-1
 938 89 l 2,52,53
 938 97 938 97 933 103 c 128,-1,54
 928 109 928 109 921 109 c 2,55,-1
 710 109 l 1,56,-1
 614 229 l 1,57,-1
 675 229 l 2,58,59
 683 229 683 229 688 235 c 128,-1,60
 693 241 693 241 693 249 c 2,61,-1
 693 369 l 2,62,63
 693 377 693 377 688 383 c 128,-1,64
 683 389 683 389 675 389 c 2,65,-1
 530 389 l 1,66,-1
 530 509 l 1,67,-1
 675 509 l 2,68,69
 683 509 683 509 688 515 c 128,-1,70
 693 521 693 521 693 529 c 2,71,-1
 693 649 l 2,72,73
 693 657 693 657 688 663 c 128,-1,74
 683 669 683 669 675 669 c 2,75,-1
 325 669 l 2,0,1
EndSplineSet
EndChar

StartChar: uni001A
Encoding: 26 26 124
Width: 1024
Flags: W
LayerCount: 2
Fore
SplineSet
229 742 m 1,0,-1
 229 702 l 1,1,-1
 154 702 l 1,2,-1
 79 702 l 1,3,-1
 81 -98 l 1,4,-1
 81 -126 l 1,5,-1
 81 -136 l 1,6,-1
 921 -136 l 1,7,-1
 921 -126 l 1,8,-1
 921 -98 l 1,9,-1
 921 591 l 1,10,-1
 809 702 l 1,11,-1
 769 702 l 1,12,-1
 769 742 l 1,13,-1
 229 742 l 1,0,-1
269 702 m 1,14,-1
 727 702 l 1,15,-1
 727 400 l 1,16,-1
 269 400 l 1,17,-1
 269 702 l 1,14,-1
568 667 m 2,18,19
 560 667 560 667 554.5 661.5 c 128,-1,20
 549 656 549 656 549 648 c 2,21,-1
 549 456 l 2,22,23
 549 449 549 449 554.5 443.5 c 128,-1,24
 560 438 560 438 568 438 c 2,25,-1
 645 438 l 2,26,27
 653 438 653 438 658.5 443.5 c 128,-1,28
 664 449 664 449 664 456 c 2,29,-1
 664 648 l 2,30,31
 664 656 664 656 658.5 661.5 c 128,-1,32
 653 667 653 667 645 667 c 2,33,-1
 568 667 l 2,18,19
181 287 m 1,34,-1
 821 287 l 1,35,-1
 821 277 l 1,36,-1
 821 -83 l 1,37,-1
 181 -83 l 1,38,-1
 181 257 l 1,39,-1
 181 287 l 1,34,-1
EndSplineSet
EndChar

StartChar: uni001B
Encoding: 27 27 125
Width: 1024
Flags: W
LayerCount: 2
Fore
SplineSet
593 245 m 0,0,1
 572 244 572 244 560 227 c 0,2,3
 540 198 540 198 545 186 c 2,4,-1
 607 34 l 1,5,-1
 616 5 l 1,6,-1
 647 5 l 1,7,-1
 832 5 l 2,8,9
 849 5 849 5 861.5 17 c 128,-1,10
 874 29 874 29 874 46.5 c 128,-1,11
 874 64 874 64 861.5 76.5 c 128,-1,12
 849 89 849 89 832 88 c 1,13,-1
 677 88 l 1,14,-1
 634 216 l 2,15,16
 630 229 630 229 618.5 237 c 128,-1,17
 607 245 607 245 593 245 c 0,0,1
493 249 m 0,18,19
 480 249 480 249 469.5 242 c 128,-1,20
 459 235 459 235 455 224 c 1,21,-1
 268 -114 l 1,22,23
 289 -132 289 -132 330.5 -126 c 128,-1,24
 372 -120 372 -120 388 -94 c 0,25,26
 416 -50 416 -50 473 55.5 c 128,-1,27
 530 161 530 161 545 186 c 1,28,29
 546 190 546 190 540.5 199 c 128,-1,30
 535 208 535 208 534 210 c 1,31,32
 534 221 534 221 528 230 c 0,33,34
 516 249 516 249 493 249 c 0,18,19
376 520 m 128,-1,36
 366 520 366 520 357.5 514.5 c 128,-1,37
 349 509 349 509 344 501 c 2,38,-1
 283 387 l 1,39,-1
 152 350 l 2,40,41
 138 346 138 346 130.5 332.5 c 128,-1,42
 123 319 123 319 127 304.5 c 128,-1,43
 131 290 131 290 144.5 283 c 128,-1,44
 158 276 158 276 172 280 c 2,45,-1
 318 322 l 1,46,-1
 332 326 l 1,47,-1
 340 339 l 1,48,-1
 408 466 l 2,49,50
 413 475 413 475 413 484.5 c 128,-1,51
 413 494 413 494 408 502.5 c 128,-1,52
 403 511 403 511 394.5 515.5 c 128,-1,35
 386 520 386 520 376 520 c 128,-1,36
390 520 m 2,53,54
 375 520 375 520 364 509.5 c 128,-1,55
 353 499 353 499 352.5 484 c 128,-1,56
 352 469 352 469 362.5 458 c 128,-1,57
 373 447 373 447 388 447 c 2,58,-1
 649 441 l 1,59,-1
 732 312 l 2,60,61
 740 299 740 299 755 296 c 128,-1,62
 770 293 770 293 782.5 301 c 128,-1,63
 795 309 795 309 798.5 324 c 128,-1,64
 802 339 802 339 794 351 c 2,65,-1
 700 497 l 2,66,67
 697 502 697 502 696 504 c 128,-1,68
 695 506 695 506 692.5 508.5 c 2,69,-1
 689.5 511.5 l 1,70,-1
 686.5 513.5 l 1,71,-1
 683 515 l 1,72,-1
 677.5 516.5 l 1,73,-1
 669 519 l 1,74,-1
 390 520 l 2,53,54
426 706 m 128,-1,76
 392 706 392 706 367.5 681.5 c 128,-1,77
 343 657 343 657 343 623 c 128,-1,78
 343 589 343 589 367.5 564 c 128,-1,79
 392 539 392 539 426 539 c 128,-1,80
 460 539 460 539 484.5 564 c 128,-1,81
 509 589 509 589 509 623 c 128,-1,82
 509 657 509 657 484.5 681.5 c 128,-1,75
 460 706 460 706 426 706 c 128,-1,76
368 519 m 1,83,-1
 445 186 l 1,84,-1
 642 186 l 1,85,-1
 561 519 l 1,86,-1
 368 519 l 1,83,-1
EndSplineSet
EndChar

StartChar: uni001C
Encoding: 28 28 126
Width: 1024
Flags: W
LayerCount: 2
Fore
SplineSet
601 684 m 1,0,-1
 301 444 l 1,1,-1
 61 444 l 1,2,-1
 61 124 l 1,3,-1
 301 124 l 1,4,-1
 601 -116 l 1,5,-1
 601 684 l 1,0,-1
765 604 m 1,6,-1
 722 538 l 1,7,8
 786 497 786 497 823.5 429.5 c 128,-1,9
 861 362 861 362 861 283.5 c 128,-1,10
 861 205 861 205 823.5 138 c 128,-1,11
 786 71 786 71 722 30 c 1,12,-1
 765 -36 l 1,13,14
 845 16 845 16 892 100.5 c 128,-1,15
 939 185 939 185 939 283.5 c 128,-1,16
 939 382 939 382 892 467 c 128,-1,17
 845 552 845 552 765 604 c 1,6,-1
694 493 m 1,18,-1
 651 427 l 1,19,20
 687 404 687 404 708 366 c 128,-1,21
 729 328 729 328 729 283.5 c 128,-1,22
 729 239 729 239 708 201 c 128,-1,23
 687 163 687 163 651 140 c 1,24,-1
 694 74 l 1,25,26
 746 108 746 108 777 163.5 c 128,-1,27
 808 219 808 219 808 283.5 c 128,-1,28
 808 348 808 348 777 403.5 c 128,-1,29
 746 459 746 459 694 493 c 1,18,-1
EndSplineSet
EndChar

StartChar: uni001D
Encoding: 29 29 127
Width: 1024
Flags: W
LayerCount: 2
Fore
SplineSet
500 699 m 1,0,-1
 393 392 l 1,1,-1
 68 386 l 1,2,-1
 327 189 l 1,3,-1
 233 -122 l 1,4,-1
 500 64 l 1,5,-1
 766 -122 l 1,6,-1
 673 189 l 1,7,-1
 932 385 l 1,8,-1
 607 392 l 1,9,-1
 500 699 l 1,0,-1
EndSplineSet
EndChar

StartChar: uni001E
Encoding: 30 30 128
Width: 1024
Flags: W
LayerCount: 2
Fore
SplineSet
280 379 m 1,0,-1
 280 319 l 1,1,-1
 720 319 l 1,2,-1
 720 379 l 1,3,-1
 280 379 l 1,0,-1
280 279 m 1,4,-1
 280 219 l 1,5,-1
 620 219 l 1,6,-1
 620 279 l 1,7,-1
 280 279 l 1,4,-1
280 179 m 1,8,-1
 280 119 l 1,9,-1
 680 119 l 1,10,-1
 680 179 l 1,11,-1
 280 179 l 1,8,-1
280 79 m 1,12,-1
 280 19 l 1,13,-1
 520 19 l 1,14,-1
 520 79 l 1,15,-1
 280 79 l 1,12,-1
185 730 m 2,16,17
 172 730 172 730 163 721 c 128,-1,18
 154 712 154 712 154 699 c 2,19,-1
 154 -101 l 2,20,21
 154 -114 154 -114 163 -123 c 128,-1,22
 172 -132 172 -132 185 -132 c 2,23,-1
 815 -132 l 2,24,25
 828 -132 828 -132 837 -123 c 128,-1,26
 846 -114 846 -114 846 -101 c 2,27,-1
 846 517 l 2,28,29
 846 530 846 530 838 539 c 2,30,-1
 662 720 l 2,31,32
 653 730 653 730 640 730 c 2,33,-1
 185 730 l 2,16,17
216 668 m 1,34,-1
 610 668 l 1,35,-1
 610 507 l 1,36,-1
 610 487 l 1,37,-1
 630 487 l 1,38,-1
 784 487 l 1,39,-1
 784 -70 l 1,40,-1
 216 -70 l 1,41,-1
 216 668 l 1,34,-1
650 643 m 1,42,-1
 762 527 l 1,43,-1
 650 527 l 1,44,-1
 650 643 l 1,42,-1
EndSplineSet
EndChar

StartChar: uni001F
Encoding: 31 31 129
Width: 1024
Flags: W
LayerCount: 2
Fore
SplineSet
220 637 m 1,0,-1
 173 497 l 1,1,-1
 103 497 l 2,2,3
 85 497 85 497 72.5 484.5 c 128,-1,4
 60 472 60 472 60 454 c 2,5,-1
 60 20 l 2,6,7
 60 2 60 2 72.5 -10.5 c 128,-1,8
 85 -23 85 -23 103 -23 c 2,9,-1
 897 -23 l 2,10,11
 915 -23 915 -23 927.5 -10.5 c 128,-1,12
 940 2 940 2 940 20 c 2,13,-1
 940 454 l 2,14,15
 940 472 940 472 927.5 484.5 c 128,-1,16
 915 497 915 497 897 497 c 2,17,-1
 840 497 l 1,18,-1
 840 517 l 2,19,20
 840 525 840 525 834 531 c 128,-1,21
 828 537 828 537 820 537 c 2,22,-1
 800 537 l 1,23,-1
 730 537 l 2,24,25
 725 537 725 537 720 539 c 1,26,-1
 720 537 l 1,27,-1
 700 537 l 2,28,29
 692 537 692 537 686 531 c 128,-1,30
 680 525 680 525 680 517 c 2,31,-1
 680 497 l 1,32,-1
 467 497 l 1,33,-1
 420 637 l 1,34,-1
 220 637 l 1,0,-1
320 437 m 128,-1,36
 403 437 403 437 461.5 378.5 c 128,-1,37
 520 320 520 320 520 237 c 128,-1,38
 520 154 520 154 461.5 95.5 c 128,-1,39
 403 37 403 37 320 37 c 128,-1,40
 237 37 237 37 178.5 95.5 c 128,-1,41
 120 154 120 154 120 237 c 128,-1,42
 120 320 120 320 178.5 378.5 c 128,-1,35
 237 437 237 437 320 437 c 128,-1,36
680 437 m 2,43,-1
 840 437 l 2,44,45
 848 437 848 437 854 431 c 128,-1,46
 860 425 860 425 860 417 c 2,47,-1
 860 357 l 2,48,49
 860 349 860 349 854 343 c 128,-1,50
 848 337 848 337 840 337 c 2,51,-1
 680 337 l 2,52,53
 672 337 672 337 666 343 c 128,-1,54
 660 349 660 349 660 357 c 2,55,-1
 660 417 l 2,56,57
 660 425 660 425 666 431 c 128,-1,58
 672 437 672 437 680 437 c 2,43,-1
320 397 m 128,-1,60
 254 397 254 397 207 350 c 128,-1,61
 160 303 160 303 160 237 c 128,-1,62
 160 171 160 171 207 124 c 128,-1,63
 254 77 254 77 320 77 c 128,-1,64
 386 77 386 77 433 124 c 128,-1,65
 480 171 480 171 480 237 c 128,-1,66
 480 303 480 303 433 350 c 128,-1,59
 386 397 386 397 320 397 c 128,-1,60
320 357 m 128,-1,68
 370 357 370 357 405 322 c 128,-1,69
 440 287 440 287 440 237 c 128,-1,70
 440 187 440 187 405 152 c 128,-1,71
 370 117 370 117 320 117 c 128,-1,72
 270 117 270 117 235 152 c 128,-1,73
 200 187 200 187 200 237 c 128,-1,74
 200 287 200 287 235 322 c 128,-1,67
 270 357 270 357 320 357 c 128,-1,68
EndSplineSet
EndChar

StartChar: uni000D
Encoding: 13 13 130
Width: 1000
Flags: W
LayerCount: 2
Fore
SplineSet
839 320 m 128,-1,1
 839 245 839 245 920 198 c 1,2,3
 907 154 907 154 886 114 c 1,4,5
 813 133 813 133 750 70 c 0,6,7
 695 15 695 15 716 -65 c 1,8,9
 676 -87 676 -87 632 -100 c 1,10,11
 611 -63 611 -63 575 -41 c 128,-1,12
 539 -19 539 -19 500 -19 c 128,-1,13
 461 -19 461 -19 425 -41 c 128,-1,14
 389 -63 389 -63 368 -100 c 1,15,16
 324 -87 324 -87 284 -65 c 1,17,18
 305 15 305 15 250 70 c 128,-1,19
 195 125 195 125 115 104 c 1,20,21
 93 144 93 144 80 188 c 1,22,23
 117 209 117 209 139 245 c 128,-1,24
 161 281 161 281 161 320 c 0,25,26
 161 395 161 395 80 442 c 1,27,28
 93 486 93 486 115 526 c 1,29,30
 187 507 187 507 250 570 c 0,31,32
 305 625 305 625 284 705 c 1,33,34
 324 727 324 727 368 740 c 1,35,36
 389 703 389 703 425 681 c 128,-1,37
 461 659 461 659 500 659 c 128,-1,38
 539 659 539 659 575 681 c 128,-1,39
 611 703 611 703 632 740 c 1,40,41
 676 727 676 727 716 705 c 1,42,43
 695 625 695 625 750 570 c 0,44,45
 813 507 813 507 885 526 c 1,46,47
 907 486 907 486 920 442 c 1,48,0
 839 395 839 395 839 320 c 128,-1,1
500 137 m 128,-1,50
 576 137 576 137 629.5 190.5 c 128,-1,51
 683 244 683 244 683 320 c 128,-1,52
 683 396 683 396 629.5 449.5 c 128,-1,53
 576 503 576 503 500 503 c 128,-1,54
 424 503 424 503 370.5 449.5 c 128,-1,55
 317 396 317 396 317 320 c 128,-1,56
 317 244 317 244 370.5 190.5 c 128,-1,49
 424 137 424 137 500 137 c 128,-1,50
EndSplineSet
EndChar

StartChar: uni000C
Encoding: 12 12 131
Width: 1000
Flags: W
LayerCount: 2
Fore
SplineSet
500 602 m 128,-1,1
 459 602 459 602 429.5 631.5 c 128,-1,2
 400 661 400 661 400 702 c 128,-1,3
 400 743 400 743 429.5 772.5 c 128,-1,4
 459 802 459 802 500 802 c 128,-1,5
 541 802 541 802 570.5 772.5 c 128,-1,6
 600 743 600 743 600 702 c 128,-1,7
 600 661 600 661 570.5 631.5 c 128,-1,0
 541 602 541 602 500 602 c 128,-1,1
799 223 m 0,8,9
 804 199 804 199 788.5 185.5 c 128,-1,10
 773 172 773 172 752.5 177 c 128,-1,11
 732 182 732 182 723 205 c 0,12,13
 722 210 722 210 719 218 c 0,14,15
 703 262 703 262 694 284.5 c 128,-1,16
 685 307 685 307 668 338 c 128,-1,17
 651 369 651 369 631 392 c 1,18,19
 621 329 621 329 637 226.5 c 128,-1,20
 653 124 653 124 675.5 15 c 128,-1,21
 698 -94 698 -94 700 -148 c 0,22,23
 700 -169 700 -169 685.5 -183.5 c 128,-1,24
 671 -198 671 -198 650 -198 c 0,25,26
 634 -198 634 -198 621.5 -189 c 128,-1,27
 609 -180 609 -180 603 -166 c 1,28,29
 593 -131 593 -131 567 -56 c 128,-1,30
 541 19 541 19 521 77 c 1,31,-1
 500 134 l 1,32,-1
 500 134 l 1,33,34
 420 -87 420 -87 397 -166 c 1,35,36
 391 -180 391 -180 378.5 -189 c 128,-1,37
 366 -198 366 -198 350 -198 c 0,38,39
 329 -198 329 -198 314.5 -183.5 c 128,-1,40
 300 -169 300 -169 300 -148 c 0,41,42
 302 -94 302 -94 324.5 15 c 128,-1,43
 347 124 347 124 363 226.5 c 128,-1,44
 379 329 379 329 369 392 c 1,45,46
 348 368 348 368 329.5 333 c 128,-1,47
 311 298 311 298 303.5 278.5 c 128,-1,48
 296 259 296 259 277 205 c 0,49,50
 268 182 268 182 247.5 177 c 128,-1,51
 227 172 227 172 211.5 185.5 c 128,-1,52
 196 199 196 199 201 223 c 0,53,54
 251 454 251 454 303 518 c 0,55,56
 353 579 353 579 500 579 c 128,-1,57
 647 579 647 579 697 518 c 0,58,59
 749 454 749 454 799 223 c 0,8,9
EndSplineSet
EndChar

StartChar: uni000B
Encoding: 11 11 132
Width: 1000
Flags: W
LayerCount: 2
Fore
SplineSet
787 670 m 0,0,1
 838 652 838 652 876 624.5 c 128,-1,2
 914 597 914 597 931.5 568 c 128,-1,3
 949 539 949 539 956 511.5 c 128,-1,4
 963 484 963 484 958 464 c 128,-1,5
 953 444 953 444 940 437 c 0,6,7
 929 431 929 431 909 431 c 128,-1,8
 889 431 889 431 868.5 431.5 c 128,-1,9
 848 432 848 432 825 428 c 128,-1,10
 802 424 802 424 780 406 c 128,-1,11
 758 388 758 388 741 356 c 1,12,13
 728 327 728 327 731 306 c 128,-1,14
 734 285 734 285 748.5 265.5 c 128,-1,15
 763 246 763 246 779.5 233 c 128,-1,16
 796 220 796 220 810.5 205.5 c 128,-1,17
 825 191 825 191 827 181 c 0,18,19
 830 168 830 168 823 145.5 c 128,-1,20
 816 123 816 123 794 91 c 128,-1,21
 772 59 772 59 737.5 28 c 128,-1,22
 703 -3 703 -3 643 -34 c 128,-1,23
 583 -65 583 -65 508 -86 c 1,24,25
 384 -118 384 -118 287.5 -96 c 128,-1,26
 191 -74 191 -74 127.5 -10 c 128,-1,27
 64 54 64 54 46 147 c 0,28,29
 31 223 31 223 53 314 c 128,-1,30
 75 405 75 405 128 484 c 128,-1,31
 181 563 181 563 251 606 c 0,32,33
 508 763 508 763 787 670 c 0,0,1
605 134 m 128,-1,35
 635 142 635 142 650 169.5 c 128,-1,36
 665 197 665 197 657 227 c 128,-1,37
 649 257 649 257 622 272.5 c 128,-1,38
 595 288 595 288 565 280 c 128,-1,39
 535 272 535 272 519.5 244.5 c 128,-1,40
 504 217 504 217 512.5 187 c 128,-1,41
 521 157 521 157 548 141.5 c 128,-1,34
 575 126 575 126 605 134 c 128,-1,35
EndSplineSet
EndChar

